<?xml version="1.0" encoding="utf-8"?>
<!-- Generator: Adobe Illustrator 24.0.3, SVG Export Plug-In . SVG Version: 6.00 Build 0)  -->
<svg version="1.1" id="Слой_1" xmlns="http://www.w3.org/2000/svg" xmlns:xlink="http://www.w3.org/1999/xlink" x="0px" y="0px"
	 viewBox="0 0 8 12" style="enable-background:new 0 0 8 12;" xml:space="preserve">
<style type="text/css">
	.st0{fill:#C6CED6;}
</style>
<path class="st0" d="M4.7,6l-4.5,4.5C0.1,10.6,0,10.8,0,11c0,0.2,0.1,0.3,0.2,0.5l0.4,0.4C0.7,11.9,0.9,12,1.1,12
	c0.2,0,0.3-0.1,0.5-0.2l5.3-5.3C7,6.3,7.1,6.2,7.1,6c0-0.2-0.1-0.3-0.2-0.5L1.5,0.2C1.4,0.1,1.2,0,1.1,0C0.9,0,0.7,0.1,0.6,0.2
	L0.2,0.6c-0.3,0.3-0.3,0.7,0,0.9L4.7,6z"/>
</svg>
