<?xml version="1.0" encoding="utf-8"?>
<!-- Generator: Adobe Illustrator 24.0.3, SVG Export Plug-In . SVG Version: 6.00 Build 0)  -->
<svg version="1.1" id="Capa_1" xmlns="http://www.w3.org/2000/svg" xmlns:xlink="http://www.w3.org/1999/xlink" x="0px" y="0px"
	 viewBox="0 0 485.2 485.2" style="enable-background:new 0 0 485.2 485.2;" xml:space="preserve">
<style type="text/css">
	.st0{fill:#FFFFFF;}
</style>
<g>
	<g>
		<polygon class="st0" points="85.7,45.5 0,45.5 0,75.8 65.9,75.8 172,318.4 424.5,318.4 424.5,288.1 191.9,288.1 		"/>
		<path class="st0" d="M151.6,106.1l60.7,151.6h212.3l60.7-151.6H151.6z M404,227.4H232.8l-36.4-91h244L404,227.4z"/>
		<path class="st0" d="M227.4,348.7c-25.1,0-45.5,20.4-45.5,45.5c0,25.1,20.4,45.5,45.5,45.5c25.1,0,45.5-20.4,45.5-45.5
			C272.9,369.1,252.6,348.7,227.4,348.7z M227.4,409.4c-8.4,0-15.2-6.8-15.2-15.2c0-8.4,6.8-15.2,15.2-15.2
			c8.4,0,15.2,6.8,15.2,15.2C242.6,402.6,235.8,409.4,227.4,409.4z"/>
		<path class="st0" d="M379.1,348.7c-25.1,0-45.5,20.4-45.5,45.5c0,25.1,20.4,45.5,45.5,45.5s45.5-20.4,45.5-45.5
			C424.5,369.1,404.2,348.7,379.1,348.7z M379.1,409.4c-8.4,0-15.2-6.8-15.2-15.2c0-8.4,6.8-15.2,15.2-15.2
			c8.3,0,15.2,6.8,15.2,15.2C394.2,402.6,387.4,409.4,379.1,409.4z"/>
	</g>
</g>
</svg>
