<?xml version="1.0" encoding="utf-8"?>
<!-- Generator: Adobe Illustrator 24.0.3, SVG Export Plug-In . SVG Version: 6.00 Build 0)  -->
<svg version="1.1" xmlns="http://www.w3.org/2000/svg" xmlns:xlink="http://www.w3.org/1999/xlink" x="0px" y="0px"
	 viewBox="0 0 20 16" style="enable-background:new 0 0 20 16;" xml:space="preserve">
<g id="Слой_1">
	<path d="M17.3,15.2l-0.2,0.2c-0.4,0.4-0.9,0.4-1.3,0L2.6,2.1c-0.4-0.4-0.4-0.9,0-1.3l0.2-0.2c0.4-0.4,0.9-0.4,1.3,0l13.2,13.2
		C17.7,14.2,17.7,14.8,17.3,15.2z"/>
	<path d="M17.1,0.7l0.2,0.2c0.4,0.4,0.4,0.9,0,1.3L4.1,15.3c-0.4,0.4-0.9,0.4-1.3,0l-0.2-0.2c-0.4-0.4-0.4-0.9,0-1.3L15.9,0.7
		C16.2,0.4,16.8,0.4,17.1,0.7z"/>
</g>
<g id="Слой_2">
</g>
</svg>
