<svg width="8" height="12" viewBox="0 0 8 12" fill="none" xmlns="http://www.w3.org/2000/svg">
<path d="M4.68181 5.99746L0.192647 10.4868C0.069037 10.6101 0.0010376 10.775 0.0010376 10.9508C0.0010376 11.1267 0.069037 11.2915 0.192647 11.415L0.586011 11.8082C0.709426 11.9319 0.874401 12 1.05021 12C1.22601 12 1.39079 11.9319 1.5143 11.8082L6.85936 6.46322C6.98336 6.33932 7.05127 6.17376 7.05078 5.99776C7.05127 5.82098 6.98346 5.65561 6.85936 5.53161L1.51928 0.191806C1.39577 0.0680981 1.23099 0 1.05508 0C0.87928 0 0.714499 0.0680981 0.59089 0.191806L0.197622 0.584976C-0.0582795 0.840878 -0.0582795 1.25746 0.197622 1.51327L4.68181 5.99746Z" fill="#D6D6D6"/>
</svg>
