<svg width="12" height="12" fill="none" xmlns="http://www.w3.org/2000/svg"><path d="M11.11 0H4.476a.858.858 0 00-.857.857V2.87h.783V.857c0-.04.033-.074.074-.074h6.634c.04 0 .074.033.074.074V7.49a.075.075 0 01-.074.075H9.16v.783h1.95a.858.858 0 00.857-.858V.857A.858.858 0 0011.11 0z" fill="#007AFF"/><path d="M7.522 3.652H.889a.858.858 0 00-.858.857v6.634c0 .472.385.857.858.857h6.633a.858.858 0 00.857-.857V4.509a.858.858 0 00-.857-.857zm0 7.565H.889a.075.075 0 01-.075-.074V4.509c0-.04.033-.074.075-.074h6.633c.041 0 .075.033.075.074v6.634a.075.075 0 01-.075.074z" fill="#007AFF"/></svg>