<svg width="8" height="12" viewBox="0 0 8 12" fill="none" xmlns="http://www.w3.org/2000/svg">
<path d="M4.68083 5.99746L0.19167 10.4868C0.0680604 10.6101 6.10352e-05 10.775 6.10352e-05 10.9508C6.10352e-05 11.1267 0.0680604 11.2915 0.19167 11.415L0.585035 11.8082C0.708449 11.9319 0.873425 12 1.04923 12C1.22503 12 1.38981 11.9319 1.51333 11.8082L6.85839 6.46322C6.98239 6.33932 7.05029 6.17376 7.0498 5.99776C7.05029 5.82098 6.98249 5.65561 6.85839 5.53161L1.5183 0.191806C1.39479 0.0680981 1.23001 0 1.05411 0C0.878303 0 0.713522 0.0680981 0.589913 0.191806L0.196646 0.584976C-0.0592561 0.840878 -0.0592561 1.25746 0.196646 1.51327L4.68083 5.99746Z" fill="#007AFF"/>
</svg>
