<svg width="18" height="18" viewBox="0 0 18 18" fill="none" xmlns="http://www.w3.org/2000/svg">
<g clip-path="url(#clip0)">
<path d="M14.2253 11.1504C13.8568 10.7667 13.4123 10.5615 12.9412 10.5615C12.4739 10.5615 12.0256 10.7629 11.6419 11.1466L10.4415 12.3432C10.3427 12.2901 10.2439 12.2407 10.1489 12.1913C10.0122 12.1229 9.88299 12.0583 9.77282 11.9899C8.64831 11.2757 7.62637 10.345 6.64623 9.14067C6.17135 8.54043 5.85223 8.03515 5.62049 7.52229C5.93201 7.23736 6.22074 6.94104 6.50186 6.65611C6.60824 6.54974 6.71461 6.43956 6.82098 6.33319C7.61878 5.5354 7.61878 4.50206 6.82098 3.70427L5.78385 2.66714C5.66608 2.54937 5.54451 2.4278 5.43054 2.30623C5.2026 2.07069 4.96326 1.82755 4.71632 1.59961C4.34782 1.2349 3.90713 1.04115 3.44365 1.04115C2.98017 1.04115 2.53188 1.2349 2.15198 1.59961C2.14818 1.60341 2.14818 1.60341 2.14438 1.60721L0.852716 2.91027C0.366441 3.39655 0.0891121 3.9892 0.0283277 4.67682C-0.0628488 5.78613 0.263867 6.81947 0.514603 7.49569C1.13004 9.15587 2.04941 10.6945 3.42086 12.3432C5.08483 14.3301 7.08691 15.8991 9.37392 17.0046C10.2477 17.4187 11.414 17.9088 12.7171 17.9924C12.7968 17.9962 12.8804 18 12.9564 18C13.834 18 14.571 17.6847 15.1484 17.0578C15.1522 17.0502 15.1598 17.0464 15.1636 17.0388C15.3612 16.7995 15.5891 16.583 15.8285 16.3512C15.9918 16.1955 16.159 16.0321 16.3223 15.8611C16.6984 15.4698 16.896 15.014 16.896 14.5467C16.896 14.0756 16.6946 13.6235 16.3109 13.2436L14.2253 11.1504ZM15.5853 15.1507C15.5815 15.1507 15.5815 15.1545 15.5853 15.1507C15.4372 15.3103 15.2852 15.4546 15.1218 15.6142C14.8749 15.8497 14.6242 16.0967 14.3886 16.374C14.0049 16.7843 13.5529 16.9781 12.9602 16.9781C12.9032 16.9781 12.8424 16.9781 12.7854 16.9743C11.6571 16.9021 10.6086 16.4614 9.82221 16.0853C7.67196 15.0444 5.78385 13.5665 4.21485 11.6936C2.91938 10.1322 2.05321 8.68859 1.47955 7.13859C1.12625 6.19263 0.997079 5.45562 1.05406 4.7604C1.09205 4.31591 1.26301 3.94741 1.57833 3.63209L2.8738 2.33662C3.05995 2.16186 3.2575 2.06689 3.45125 2.06689C3.69059 2.06689 3.88434 2.21125 4.00591 2.33282C4.0097 2.33662 4.0135 2.34042 4.0173 2.34422C4.24904 2.56076 4.46939 2.7849 4.70113 3.02424C4.8189 3.14581 4.94046 3.26738 5.06203 3.39275L6.09917 4.42988C6.50186 4.83258 6.50186 5.20488 6.09917 5.60758C5.989 5.71775 5.88262 5.82792 5.77245 5.93429C5.45333 6.26101 5.14941 6.56493 4.8189 6.86126C4.8113 6.86885 4.8037 6.87265 4.7999 6.88025C4.47319 7.20697 4.53397 7.52609 4.60235 7.74263C4.60615 7.75403 4.60995 7.76542 4.61375 7.77682C4.88348 8.43025 5.26338 9.0457 5.84083 9.77891L5.84463 9.78271C6.89316 11.0744 7.99868 12.0811 9.21816 12.8523C9.37393 12.9511 9.53348 13.0309 9.68544 13.1069C9.82221 13.1752 9.95138 13.2398 10.0615 13.3082C10.0767 13.3158 10.0919 13.3272 10.1071 13.3348C10.2363 13.3994 10.3579 13.4298 10.4832 13.4298C10.7986 13.4298 10.9961 13.2322 11.0607 13.1676L12.36 11.8684C12.4891 11.7392 12.6943 11.5834 12.9336 11.5834C13.1691 11.5834 13.3629 11.7316 13.4807 11.8608C13.4845 11.8646 13.4845 11.8646 13.4883 11.8684L15.5815 13.9616C15.9728 14.3491 15.9728 14.748 15.5853 15.1507Z" fill="#2F3540"/>
<path d="M9.72684 4.28172C10.7222 4.44888 11.6264 4.91995 12.3482 5.64177C13.07 6.36358 13.5373 7.26775 13.7082 8.26309C13.75 8.51383 13.9665 8.68858 14.2135 8.68858C14.2439 8.68858 14.2705 8.68479 14.3009 8.68099C14.582 8.6354 14.7681 8.36947 14.7225 8.08834C14.5174 6.88405 13.9475 5.78613 13.0776 4.91616C12.2076 4.04618 11.1097 3.47633 9.9054 3.27118C9.62427 3.22559 9.36214 3.41174 9.31275 3.68907C9.26336 3.9664 9.44572 4.23613 9.72684 4.28172Z" fill="#2F3540"/>
<path d="M17.9792 7.94019C17.6411 5.9571 16.7066 4.15257 15.2705 2.71654C13.8345 1.28051 12.03 0.345947 10.0469 0.00783421C9.76955 -0.0415531 9.50742 0.148398 9.45803 0.425727C9.41245 0.706854 9.5986 0.968987 9.87973 1.01837C11.6501 1.3185 13.2647 2.15808 14.5487 3.43835C15.8328 4.72242 16.6686 6.33701 16.9687 8.10735C17.0105 8.35809 17.227 8.53284 17.474 8.53284C17.5044 8.53284 17.531 8.52904 17.5613 8.52524C17.8387 8.48345 18.0286 8.21752 17.9792 7.94019Z" fill="#2F3540"/>
</g>
<defs>
<clipPath id="clip0">
<rect width="18" height="18" fill="white"/>
</clipPath>
</defs>
</svg>
