<svg width="20" height="21" viewBox="0 0 20 21" fill="none" xmlns="http://www.w3.org/2000/svg">
<path d="M19.9399 19.2552L13.4474 12.6246C14.4549 11.2944 14.9999 9.66805 14.9999 7.95742C14.9999 5.90976 14.2174 3.98977 12.8024 2.54212C11.3874 1.09447 9.50246 0.297874 7.49997 0.297874C5.49748 0.297874 3.61248 1.09702 2.19749 2.54212C0.779996 3.98722 0 5.90976 0 7.95742C0 10.0025 0.782496 11.9276 2.19749 13.3727C3.61248 14.8204 5.49498 15.617 7.49997 15.617C9.17496 15.617 10.765 15.0604 12.0674 14.034L18.5599 20.662C18.579 20.6815 18.6016 20.6969 18.6264 20.7075C18.6513 20.718 18.678 20.7234 18.7049 20.7234C18.7318 20.7234 18.7585 20.718 18.7834 20.7075C18.8083 20.6969 18.8309 20.6815 18.8499 20.662L19.9399 19.5514C19.959 19.532 19.9741 19.5089 19.9844 19.4835C19.9947 19.4581 20 19.4308 20 19.4033C20 19.3758 19.9947 19.3486 19.9844 19.3232C19.9741 19.2978 19.959 19.2747 19.9399 19.2552ZM11.46 12.0017C10.4 13.0816 8.99496 13.6765 7.49997 13.6765C6.00497 13.6765 4.59998 13.0816 3.53998 12.0017C2.48249 10.9191 1.89999 9.48422 1.89999 7.95742C1.89999 6.43061 2.48249 4.99317 3.53998 3.91318C4.59998 2.83318 6.00497 2.23829 7.49997 2.23829C8.99496 2.23829 10.4025 2.83063 11.46 3.91318C12.5174 4.99573 13.0999 6.43061 13.0999 7.95742C13.0999 9.48422 12.5174 10.9217 11.46 12.0017Z" fill="#818181"/>
</svg>
