<svg width="12" height="14" viewBox="0 0 12 14" fill="none" xmlns="http://www.w3.org/2000/svg">
<path d="M5.59996 7.01022e-09C4.12441 -7.37726e-05 2.70846 0.582229 1.65986 1.62035C0.611257 2.65847 0.0147555 4.0685 0 5.54398C0 9.37997 4.93497 13.65 5.14496 13.832C5.27176 13.9404 5.43311 14 5.59996 14C5.76681 14 5.92816 13.9404 6.05496 13.832C6.29995 13.65 11.1999 9.37997 11.1999 5.54398C11.1852 4.0685 10.5887 2.65847 9.54006 1.62035C8.49146 0.582229 7.07551 -7.37726e-05 5.59996 7.01022e-09ZM5.59996 12.355C4.43097 11.242 1.39999 8.15497 1.39999 5.54398C1.39999 4.43008 1.84249 3.36179 2.63013 2.57414C3.41778 1.78649 4.48606 1.344 5.59996 1.344C6.71386 1.344 7.78214 1.78649 8.56979 2.57414C9.35744 3.36179 9.79993 4.43008 9.79993 5.54398C9.79993 8.13397 6.76895 11.242 5.59996 12.355Z" fill="white"/>
<path d="M5.60037 2.79996C5.11581 2.79996 4.64213 2.94365 4.23924 3.21286C3.83634 3.48206 3.52232 3.8647 3.33689 4.31238C3.15145 4.76006 3.10293 5.25267 3.19747 5.72792C3.292 6.20317 3.52534 6.63972 3.86797 6.98236C4.21061 7.32499 4.64716 7.55833 5.12241 7.65287C5.59765 7.7474 6.09026 7.69888 6.53794 7.51345C6.98562 7.32801 7.36825 7.01399 7.63746 6.61109C7.90667 6.20819 8.05035 5.73451 8.05035 5.24995C8.05035 4.60017 7.79223 3.97701 7.33277 3.51754C6.87331 3.05808 6.25015 2.79996 5.60037 2.79996ZM5.60037 6.29995C5.3927 6.29995 5.1897 6.23837 5.01703 6.12299C4.84436 6.00762 4.70978 5.84363 4.63031 5.65177C4.55084 5.4599 4.53004 5.24878 4.57056 5.04511C4.61107 4.84143 4.71107 4.65433 4.85792 4.50749C5.00476 4.36065 5.19185 4.26064 5.39553 4.22013C5.59921 4.17961 5.81033 4.20041 6.00219 4.27988C6.19405 4.35935 6.35803 4.49393 6.47341 4.6666C6.58878 4.83927 6.65036 5.04228 6.65036 5.24995C6.65036 5.52843 6.53974 5.7955 6.34283 5.99241C6.14592 6.18932 5.87885 6.29995 5.60037 6.29995Z" fill="white"/>
</svg>
