<svg width="184" height="19" fill="none" xmlns="http://www.w3.org/2000/svg"><path d="M27.422 18.69V.544h9.389c1.74 0 3.072.148 3.992.445.92.298 1.662.85 2.226 1.66.563.8.845 1.778.845 2.933 0 1.007-.215 1.878-.646 2.612a5.062 5.062 0 01-1.779 1.77c-.48.29-1.14.529-1.977.718.672.223 1.16.446 1.468.669.207.148.505.466.895.953.398.487.663.862.796 1.126l2.723 5.261h-6.367l-3.01-5.545c-.38-.718-.72-1.185-1.02-1.4a2.37 2.37 0 00-1.38-.42h-.497v7.366h-5.658zM33.08 7.896h2.375c.257 0 .755-.083 1.493-.248.373-.074.675-.264.907-.569.24-.305.361-.656.361-1.052 0-.586-.186-1.036-.56-1.35-.373-.313-1.073-.47-2.101-.47H33.08v3.689zM60.85 13.367H50.701c.09.81.31 1.412.659 1.808.489.57 1.127.854 1.915.854.497 0 .97-.124 1.417-.371.274-.157.568-.434.883-.83l4.987.458c-.763 1.32-1.683 2.27-2.76 2.848-1.078.569-2.625.854-4.64.854-1.748 0-3.125-.244-4.128-.73-1.003-.496-1.836-1.276-2.5-2.34-.654-1.073-.982-2.332-.982-3.776 0-2.055.66-3.718 1.977-4.989 1.327-1.27 3.155-1.906 5.485-1.906 1.89 0 3.382.285 4.477.854a5.78 5.78 0 012.499 2.476c.572 1.08.858 2.488.858 4.221v.57zm-5.15-2.413c-.099-.974-.364-1.672-.795-2.092-.423-.421-.983-.632-1.679-.632-.804 0-1.447.318-1.928.953-.306.397-.501.987-.584 1.77h4.987zM63.361.543h5.062v3.429H63.36V.542zm0 5.001h5.062V18.69H63.36V5.544zM71.656 5.544h4.713v2.142c.705-.875 1.418-1.498 2.139-1.87.721-.38 1.6-.57 2.636-.57 1.401 0 2.496.418 3.283 1.251.796.825 1.194 2.105 1.194 3.838v8.355h-5.086v-7.229c0-.825-.153-1.407-.46-1.745-.307-.347-.738-.52-1.294-.52-.613 0-1.11.23-1.492.693-.381.462-.572 1.292-.572 2.488v6.313h-5.061V5.544zM88.916.543h7.412l2.86 11.042L102.037.543h7.387V18.69h-4.601V4.85l-3.569 13.84h-4.166L93.53 4.85v13.84h-4.614V.544zM117.307 9.802l-4.837-.507c.182-.842.443-1.502.783-1.98.348-.488.846-.909 1.493-1.263.464-.256 1.102-.454 1.915-.595.812-.14 1.691-.21 2.636-.21 1.517 0 2.736.087 3.656.26.92.165 1.687.516 2.301 1.052.431.371.771.9 1.019 1.585.249.676.374 1.324.374 1.943v5.806c0 .619.037 1.106.111 1.46.083.347.257.793.523 1.337h-4.751c-.19-.338-.315-.594-.373-.767a5.971 5.971 0 01-.174-.842c-.663.636-1.322 1.09-1.977 1.362-.896.363-1.936.545-3.122.545-1.575 0-2.773-.363-3.593-1.09-.813-.726-1.219-1.621-1.219-2.686 0-.999.294-1.82.883-2.463.588-.644 1.674-1.123 3.258-1.436 1.898-.38 3.13-.644 3.693-.793a18.366 18.366 0 001.791-.606c0-.62-.128-1.052-.385-1.3s-.709-.371-1.356-.371c-.829 0-1.451.132-1.865.396-.324.206-.585.594-.784 1.163zm4.39 2.65c-.696.247-1.422.466-2.176.656-1.028.272-1.679.54-1.953.804-.281.272-.422.582-.422.929 0 .396.136.722.41.978.282.247.692.37 1.231.37.564 0 1.086-.135 1.567-.408.489-.272.833-.602 1.032-.99.207-.396.311-.908.311-1.535v-.805zM128.785 15.051l5.025-.47c.207.594.497 1.019.87 1.275.373.255.871.383 1.492.383.68 0 1.207-.144 1.58-.433.29-.214.435-.483.435-.804 0-.364-.191-.644-.572-.842-.274-.14-.999-.314-2.176-.52-1.758-.306-2.981-.586-3.669-.842-.68-.264-1.256-.706-1.729-1.325a3.437 3.437 0 01-.696-2.116c0-.867.253-1.614.759-2.24.505-.628 1.202-1.094 2.089-1.4.887-.313 2.077-.47 3.569-.47 1.575 0 2.736.12 3.482.359.754.24 1.38.61 1.878 1.114.505.503.924 1.184 1.256 2.043l-4.8.47c-.125-.421-.332-.73-.622-.928-.398-.265-.879-.397-1.443-.397-.572 0-.99.104-1.256.31-.257.198-.385.441-.385.73 0 .322.166.566.497.73.332.166 1.053.314 2.164.446 1.683.19 2.935.454 3.756.792.82.339 1.446.822 1.877 1.449a3.52 3.52 0 01.659 2.067c0 .76-.232 1.498-.696 2.216-.456.718-1.181 1.291-2.176 1.72-.987.422-2.334.632-4.042.632-2.412 0-4.133-.343-5.161-1.027-1.019-.685-1.674-1.66-1.965-2.922zM151.356.543v5.001h2.786v3.677h-2.786v4.666c0 .562.054.933.162 1.115.166.28.456.42.871.42.373 0 .895-.107 1.566-.321l.373 3.478c-1.251.272-2.42.409-3.506.409-1.261 0-2.189-.161-2.786-.483-.597-.322-1.04-.809-1.331-1.46-.281-.661-.422-1.726-.422-3.195V9.22h-1.866V5.545h1.866V3.13l5.073-2.587zM171.229 13.367h-10.148c.091.81.311 1.412.659 1.808.489.57 1.128.854 1.915.854.498 0 .97-.124 1.418-.371.274-.157.568-.434.883-.83l4.987.458c-.763 1.32-1.683 2.27-2.761 2.848-1.078.569-2.624.854-4.639.854-1.749 0-3.125-.244-4.128-.73-1.003-.496-1.837-1.276-2.5-2.34-.655-1.073-.982-2.332-.982-3.776 0-2.055.659-3.718 1.977-4.989 1.326-1.27 3.154-1.906 5.484-1.906 1.89 0 3.383.285 4.477.854a5.783 5.783 0 012.5 2.476c.572 1.08.858 2.488.858 4.221v.57zm-5.149-2.413c-.099-.974-.365-1.672-.796-2.092-.422-.421-.982-.632-1.678-.632-.805 0-1.447.318-1.928.953-.307.397-.502.987-.584 1.77h4.986zM173.604 5.544h4.738v2.154c.456-.933.924-1.572 1.405-1.919.489-.355 1.09-.532 1.803-.532.746 0 1.563.231 2.45.693l-1.567 3.59c-.597-.248-1.069-.371-1.417-.371-.664 0-1.178.272-1.542.817-.523.767-.784 2.203-.784 4.308v4.406h-5.086V5.544z" fill="#fff"/><path fill="#F68B1F" d="M0 0h19.195v19H0z"/><path d="M15.57 9.5c0 3.265-2.674 5.911-5.972 5.911-3.298 0-5.972-2.646-5.972-5.911 0-3.265 2.674-5.911 5.972-5.911 3.298 0 5.972 2.646 5.972 5.911z" fill="#fff"/><rect x="6.611" y="8.022" width="11.091" height="3.167" rx="1.583" fill="#fff"/><rect x="12.37" y="8.867" width="4.479" height="1.478" rx=".739" fill="#F68B1F"/></svg>