<svg width="1064" height="246" viewBox="0 0 1064 246" fill="none" xmlns="http://www.w3.org/2000/svg">
<rect width="246" height="246" fill="#F68B1F"/>
<path d="M199.533 123C199.533 165.268 165.268 199.533 123 199.533C80.7318 199.533 46.4667 165.268 46.4667 123C46.4667 80.7318 80.7318 46.4667 123 46.4667C165.268 46.4667 199.533 80.7318 199.533 123Z" fill="white"/>
<rect x="84.7333" y="103.867" width="142.133" height="41" rx="20.5" fill="white"/>
<rect x="158.533" y="114.8" width="57.4" height="19.1333" rx="9.56667" fill="#F68B1F"/>
<path d="M480.793 144.649L545.143 164.108C540.821 182.162 534.013 197.243 524.72 209.351C515.426 221.459 503.864 230.595 490.032 236.757C476.308 242.919 458.802 246 437.514 246C411.687 246 390.561 242.27 374.136 234.811C357.819 227.243 343.717 214 331.83 195.081C319.943 176.162 314 151.946 314 122.432C314 83.0811 324.428 52.8649 345.284 31.7838C366.248 10.5946 395.856 0 434.11 0C464.043 0 487.547 6.05405 504.62 18.1622C521.802 30.2703 534.553 48.8649 542.874 73.9459L478.037 88.3784C475.768 81.1351 473.391 75.8378 470.905 72.4865C466.799 66.8649 461.774 62.5405 455.831 59.5135C449.887 56.4865 443.241 54.973 435.893 54.973C419.252 54.973 406.501 61.6757 397.64 75.0811C390.94 85.027 387.59 100.649 387.59 121.946C387.59 148.324 391.588 166.432 399.585 176.27C407.581 186 418.82 190.865 433.3 190.865C447.348 190.865 457.938 186.919 465.07 179.027C472.31 171.135 477.551 159.676 480.793 144.649Z" fill="#007AFF"/>
<path d="M581.29 4.05405H654.718V93.8919L731.711 4.05405H829.291L742.734 93.7297L833.181 241.784H742.734L692.647 144L654.718 183.73V241.784H581.29V4.05405Z" fill="#007AFF"/>
<path d="M840.799 4.05405H1064V62.7568H989.113V241.784H915.686V62.7568H840.799V4.05405Z" fill="#007AFF"/>
</svg>
