<svg width="24" height="18" viewBox="0 0 24 18" fill="none" xmlns="http://www.w3.org/2000/svg">
<path d="M4.21084 17.9008V16.7088C4.21779 16.6086 4.20329 16.508 4.16832 16.4138C4.13335 16.3196 4.07871 16.2339 4.00803 16.1625C3.93736 16.0911 3.85227 16.0355 3.75845 15.9996C3.66462 15.9636 3.56421 15.948 3.46389 15.9539C3.33259 15.9453 3.20139 15.9721 3.08398 16.0315C2.96657 16.0909 2.86726 16.1808 2.79641 16.2916C2.73183 16.1841 2.63943 16.0959 2.52895 16.0365C2.41847 15.9771 2.294 15.9485 2.16866 15.9539C2.0594 15.9484 1.9506 15.9715 1.85303 16.021C1.75546 16.0705 1.67252 16.1446 1.61242 16.236V16.0016H1.19922V17.9008H1.6164V16.8558C1.60752 16.7909 1.61311 16.7248 1.63275 16.6622C1.65239 16.5997 1.6856 16.5423 1.73001 16.4941C1.77442 16.4459 1.82894 16.4081 1.88966 16.3834C1.95037 16.3587 2.0158 16.3477 2.08125 16.3512C2.3554 16.3512 2.49445 16.53 2.49445 16.8519V17.9087H2.91163V16.8558C2.90312 16.7909 2.90896 16.725 2.92873 16.6626C2.94851 16.6002 2.98174 16.543 3.02607 16.4948C3.07041 16.4467 3.12477 16.4089 3.18532 16.3841C3.24587 16.3593 3.31113 16.3481 3.37649 16.3512C3.65858 16.3512 3.79366 16.53 3.79366 16.8519V17.9087L4.21084 17.9008ZM10.3831 16.0016H9.70367V15.4255H9.2865V16.0016H8.90905V16.3791H9.29444V17.2531C9.29444 17.6942 9.46529 17.9564 9.95398 17.9564C10.1366 17.957 10.3156 17.906 10.4705 17.8094L10.3513 17.4558C10.2405 17.5219 10.1147 17.5588 9.98576 17.563C9.78711 17.563 9.71162 17.4359 9.71162 17.2452V16.3791H10.387L10.3831 16.0016ZM13.9072 15.9539C13.8065 15.951 13.7068 15.9752 13.6187 16.0242C13.5306 16.0731 13.4573 16.1449 13.4066 16.232V16.0016H12.9974V17.9008H13.4106V16.836C13.4106 16.5221 13.5457 16.3473 13.8079 16.3473C13.8963 16.3461 13.984 16.3623 14.0662 16.3949L14.1933 15.9976C14.0989 15.9639 13.9995 15.9464 13.8993 15.946L13.9072 15.9539ZM8.57928 16.1526C8.34539 16.0135 8.07647 15.9446 7.80452 15.9539C7.32378 15.9539 7.0099 16.1844 7.0099 16.5618C7.0099 16.8717 7.24034 17.0624 7.66547 17.122L7.86412 17.1498C8.09059 17.1816 8.19786 17.2412 8.19786 17.3485C8.19786 17.4955 8.04688 17.5789 7.76479 17.5789C7.53789 17.5855 7.31537 17.5155 7.13307 17.3803L6.93441 17.7021C7.17511 17.8702 7.4634 17.9565 7.75685 17.9484C8.30514 17.9484 8.62299 17.6902 8.62299 17.3286C8.62299 16.9671 8.37268 16.8201 7.95948 16.7605L7.76082 16.7327C7.58203 16.7088 7.439 16.6731 7.439 16.5459C7.439 16.4188 7.57408 16.3234 7.80055 16.3234C8.00987 16.3259 8.21506 16.3819 8.39652 16.4863L8.57928 16.1526ZM19.6464 15.9539C19.5456 15.951 19.446 15.9752 19.3579 16.0242C19.2698 16.0731 19.1965 16.1449 19.1458 16.232V16.0016H18.7366V17.9008H19.1498V16.836C19.1498 16.5221 19.2848 16.3473 19.5471 16.3473C19.6354 16.3461 19.7232 16.3623 19.8053 16.3949L19.9325 15.9976C19.8381 15.9639 19.7387 15.9464 19.6384 15.946L19.6464 15.9539ZM14.3224 16.9472C14.3175 17.0807 14.3405 17.2137 14.3899 17.3377C14.4394 17.4618 14.5142 17.5742 14.6096 17.6677C14.7049 17.7612 14.8188 17.8337 14.9438 17.8807C15.0688 17.9277 15.2022 17.948 15.3356 17.9405C15.5837 17.9531 15.8275 17.8723 16.0189 17.714L15.8203 17.3803C15.6774 17.4892 15.5033 17.5491 15.3236 17.5511C15.1709 17.5388 15.0284 17.4694 14.9245 17.3567C14.8206 17.2441 14.763 17.0965 14.763 16.9432C14.763 16.79 14.8206 16.6424 14.9245 16.5297C15.0284 16.4171 15.1709 16.3477 15.3236 16.3353C15.5033 16.3373 15.6774 16.3973 15.8203 16.5062L16.0189 16.1725C15.8275 16.0142 15.5837 15.9334 15.3356 15.946C15.2022 15.9384 15.0688 15.9588 14.9438 16.0058C14.8188 16.0527 14.7049 16.1253 14.6096 16.2188C14.5142 16.3123 14.4394 16.4247 14.3899 16.5487C14.3405 16.6728 14.3175 16.8058 14.3224 16.9393V16.9472ZM18.1922 16.9472V16.0016H17.779V16.232C17.7089 16.1418 17.6182 16.0695 17.5146 16.0211C17.411 15.9727 17.2973 15.9497 17.1831 15.9539C16.9196 15.9539 16.667 16.0586 16.4807 16.2449C16.2944 16.4311 16.1898 16.6838 16.1898 16.9472C16.1898 17.2106 16.2944 17.4633 16.4807 17.6496C16.667 17.8358 16.9196 17.9405 17.1831 17.9405C17.2973 17.9447 17.411 17.9217 17.5146 17.8733C17.6182 17.825 17.7089 17.7527 17.779 17.6624V17.8928H18.1922V16.9472ZM16.6546 16.9472C16.6612 16.8354 16.7004 16.728 16.7672 16.6382C16.8341 16.5483 16.9258 16.48 17.031 16.4416C17.1362 16.4033 17.2503 16.3965 17.3593 16.4221C17.4683 16.4478 17.5674 16.5048 17.6445 16.5861C17.7215 16.6673 17.7731 16.7694 17.7929 16.8796C17.8126 16.9898 17.7997 17.1034 17.7558 17.2064C17.7118 17.3094 17.6387 17.3973 17.5454 17.4592C17.4521 17.5212 17.3427 17.5545 17.2307 17.5551C17.1521 17.5561 17.0741 17.5408 17.0016 17.5102C16.9292 17.4796 16.8638 17.4343 16.8097 17.3772C16.7556 17.3201 16.7139 17.2524 16.6872 17.1784C16.6605 17.1044 16.6494 17.0257 16.6546 16.9472ZM11.6684 15.9539C11.4049 15.9576 11.1538 16.0658 10.9701 16.2547C10.7864 16.4436 10.6853 16.6977 10.689 16.9611C10.6927 17.2245 10.8009 17.4757 10.9898 17.6594C11.1786 17.8431 11.4328 17.9442 11.6962 17.9405C11.982 17.9552 12.2631 17.8631 12.4849 17.6822L12.2862 17.3763C12.1293 17.5021 11.935 17.572 11.7339 17.575C11.5973 17.5867 11.4616 17.5447 11.3555 17.4579C11.2494 17.3711 11.1813 17.2463 11.1658 17.1101H12.5762C12.5762 17.0585 12.5762 17.0068 12.5762 16.9512C12.5762 16.3552 12.2067 15.9579 11.6743 15.9579L11.6684 15.9539ZM11.6684 16.3234C11.7302 16.3221 11.7917 16.333 11.8493 16.3554C11.9069 16.3779 11.9596 16.4115 12.0042 16.4543C12.0489 16.4971 12.0847 16.5482 12.1095 16.6049C12.1344 16.6615 12.1478 16.7225 12.1491 16.7843H11.1558C11.163 16.6568 11.2199 16.5371 11.3142 16.451C11.4085 16.3649 11.5328 16.3191 11.6604 16.3234H11.6684ZM22.0203 16.9512V15.2388H21.623V16.232C21.5528 16.1418 21.4622 16.0695 21.3586 16.0211C21.255 15.9727 21.1413 15.9497 21.0271 15.9539C20.7636 15.9539 20.511 16.0586 20.3247 16.2449C20.1384 16.4311 20.0338 16.6838 20.0338 16.9472C20.0338 17.2106 20.1384 17.4633 20.3247 17.6496C20.511 17.8358 20.7636 17.9405 21.0271 17.9405C21.1413 17.9447 21.255 17.9217 21.3586 17.8733C21.4622 17.825 21.5528 17.7527 21.623 17.6624V17.8928H22.0203V16.9512ZM22.7097 17.6246C22.7355 17.6243 22.7611 17.629 22.7852 17.6385C22.808 17.6478 22.8289 17.6613 22.8467 17.6783C22.8642 17.6954 22.8783 17.7156 22.8885 17.7379C22.8985 17.7611 22.9037 17.7861 22.9037 17.8114C22.9037 17.8366 22.8985 17.8617 22.8885 17.8849C22.8783 17.9071 22.8642 17.9273 22.8467 17.9445C22.8289 17.9614 22.808 17.9749 22.7852 17.9842C22.7614 17.9947 22.7357 18.0001 22.7097 18.0001C22.672 17.9998 22.6352 17.9888 22.6036 17.9684C22.5719 17.948 22.5467 17.919 22.5309 17.8849C22.5209 17.8616 22.5158 17.8366 22.5158 17.8114C22.5158 17.7861 22.5209 17.7611 22.5309 17.7379C22.541 17.7156 22.5551 17.6954 22.5726 17.6783C22.5905 17.6613 22.6114 17.6478 22.6342 17.6385C22.6601 17.6282 22.6878 17.6235 22.7156 17.6246H22.7097ZM22.7097 17.9604C22.7295 17.9605 22.7491 17.9564 22.7673 17.9484C22.7844 17.9408 22.7999 17.93 22.813 17.9166C22.8378 17.8895 22.8516 17.8541 22.8516 17.8173C22.8516 17.7805 22.8378 17.7451 22.813 17.718C22.7999 17.7046 22.7844 17.6938 22.7673 17.6862C22.7491 17.6783 22.7295 17.6742 22.7097 17.6743C22.6899 17.6744 22.6703 17.6784 22.6521 17.6862C22.6342 17.6935 22.618 17.7043 22.6044 17.718C22.5795 17.7451 22.5657 17.7805 22.5657 17.8173C22.5657 17.8541 22.5795 17.8895 22.6044 17.9166C22.618 17.9303 22.6342 17.9411 22.6521 17.9484C22.6721 17.9571 22.6938 17.9611 22.7156 17.9604H22.7097ZM22.7216 17.724C22.7401 17.7231 22.7584 17.7287 22.7732 17.7398C22.7793 17.7449 22.7841 17.7513 22.7872 17.7585C22.7903 17.7658 22.7917 17.7737 22.7911 17.7816C22.7914 17.7882 22.7903 17.7947 22.7879 17.8009C22.7855 17.8071 22.7819 17.8126 22.7772 17.8173C22.7657 17.8278 22.751 17.8341 22.7355 17.8352L22.7931 17.9008H22.7474L22.6938 17.8352H22.6759V17.9008H22.6382V17.7259L22.7216 17.724ZM22.6779 17.7577V17.8054H22.7216C22.7294 17.8077 22.7376 17.8077 22.7454 17.8054C22.7468 17.8026 22.7475 17.7996 22.7475 17.7965C22.7475 17.7934 22.7468 17.7903 22.7454 17.7875C22.7468 17.7847 22.7475 17.7817 22.7475 17.7786C22.7475 17.7755 22.7468 17.7724 22.7454 17.7696C22.7376 17.7673 22.7294 17.7673 22.7216 17.7696L22.6779 17.7577ZM20.4927 16.9512C20.4993 16.8394 20.5384 16.732 20.6053 16.6421C20.6721 16.5523 20.7638 16.484 20.869 16.4456C20.9742 16.4072 21.0883 16.4005 21.1973 16.4261C21.3063 16.4518 21.4055 16.5088 21.4825 16.59C21.5595 16.6713 21.6111 16.7734 21.6309 16.8836C21.6507 16.9938 21.6378 17.1074 21.5938 17.2104C21.5498 17.3134 21.4767 17.4013 21.3834 17.4632C21.2901 17.5252 21.1808 17.5585 21.0688 17.5591C20.9901 17.5601 20.9121 17.5448 20.8396 17.5142C20.7672 17.4835 20.7018 17.4383 20.6477 17.3812C20.5936 17.3241 20.5519 17.2564 20.5252 17.1824C20.4985 17.1084 20.4875 17.0297 20.4927 16.9512ZM6.54107 16.9512V16.0016H6.12787V16.232C6.0577 16.1418 5.96706 16.0695 5.86344 16.0211C5.75981 15.9727 5.64617 15.9497 5.5319 15.9539C5.26847 15.9539 5.01582 16.0586 4.82955 16.2449C4.64327 16.4311 4.53862 16.6838 4.53862 16.9472C4.53862 17.2106 4.64327 17.4633 4.82955 17.6496C5.01582 17.8358 5.26847 17.9405 5.5319 17.9405C5.64617 17.9447 5.75981 17.9217 5.86344 17.8733C5.96706 17.825 6.0577 17.7527 6.12787 17.6624V17.8928H6.54107V16.9512ZM5.00348 16.9512C5.01007 16.8394 5.0492 16.732 5.11607 16.6421C5.18294 16.5523 5.27462 16.484 5.37982 16.4456C5.48502 16.4072 5.59915 16.4005 5.70815 16.4261C5.81716 16.4518 5.91628 16.5088 5.99331 16.59C6.07034 16.6713 6.12192 16.7734 6.14169 16.8836C6.16147 16.9938 6.14857 17.1074 6.1046 17.2104C6.06063 17.3134 5.9875 17.4013 5.89421 17.4632C5.80093 17.5252 5.69156 17.5585 5.57958 17.5591C5.50059 17.5606 5.42214 17.5457 5.34921 17.5154C5.27628 17.485 5.21045 17.4398 5.15591 17.3826C5.10137 17.3255 5.0593 17.2576 5.03238 17.1833C5.00545 17.1091 4.99426 17.03 4.9995 16.9512H5.00348Z" fill="#231F20"/>
<path d="M14.7 1.5293H8.44238V12.7752H14.7V1.5293Z" fill="#FF5F00"/>
<path d="M8.83913 7.15309C8.83798 6.06988 9.08331 5.0006 9.55656 4.02623C10.0298 3.05186 10.7186 2.19795 11.5706 1.52915C10.5156 0.700003 9.24859 0.184406 7.91438 0.0412863C6.58018 -0.101833 5.23262 0.133299 4.02573 0.719809C2.81883 1.30632 1.8013 2.22055 1.08941 3.358C0.377518 4.49545 0 5.81024 0 7.1521C0 8.49396 0.377518 9.80875 1.08941 10.9462C1.8013 12.0837 2.81883 12.9979 4.02573 13.5844C5.23262 14.1709 6.58018 14.406 7.91438 14.2629C9.24859 14.1198 10.5156 13.6042 11.5706 12.7751C10.7188 12.1065 10.0302 11.2529 9.55699 10.2789C9.08376 9.30486 8.83828 8.23598 8.83913 7.15309Z" fill="#EB001B"/>
<path d="M23.143 7.15343C23.143 8.49539 22.7654 9.81027 22.0533 10.9478C21.3413 12.0852 20.3236 12.9995 19.1166 13.5859C17.9095 14.1723 16.5619 14.4073 15.2276 14.264C13.8933 14.1206 12.6262 13.6048 11.5713 12.7754C12.4228 12.1062 13.1112 11.2524 13.5845 10.2783C14.0579 9.30426 14.3039 8.23542 14.3039 7.15244C14.3039 6.06946 14.0579 5.00061 13.5845 4.02656C13.1112 3.0525 12.4228 2.19867 11.5713 1.52949C12.6262 0.700082 13.8933 0.184234 15.2276 0.0409095C16.5619 -0.102415 17.9095 0.132565 19.1166 0.718992C20.3236 1.30542 21.3413 2.21963 22.0533 3.35712C22.7654 4.49461 23.143 5.80949 23.143 7.15145V7.15343Z" fill="#F79E1B"/>
<path d="M22.4604 11.5833V11.3529H22.5538V11.3052H22.3174V11.3529H22.4187V11.5833H22.4604ZM22.9193 11.5833V11.3052H22.8478L22.7644 11.5038L22.6809 11.3052H22.6174V11.5833H22.669V11.3747L22.7465 11.5555H22.8001L22.8776 11.3747V11.5853L22.9193 11.5833Z" fill="#F79E1B"/>
</svg>
