<svg width="313" height="32" viewBox="0 0 313 32" fill="none" xmlns="http://www.w3.org/2000/svg">
<path d="M46.6465 31.4788V0.914284H62.6179C65.5795 0.914284 67.843 1.16447 69.4085 1.66484C70.9739 2.16522 72.2361 3.09647 73.1951 4.4586C74.1541 5.80683 74.6336 7.45389 74.6336 9.39979C74.6336 11.0955 74.2669 12.5619 73.5335 13.7989C72.8002 15.022 71.7918 16.0158 70.5085 16.7803C69.6905 17.2668 68.5693 17.6699 67.145 17.9895C68.2873 18.3648 69.1193 18.7401 69.6412 19.1154C69.9937 19.3656 70.5014 19.9007 71.1643 20.7207C71.8412 21.5408 72.2925 22.1732 72.5181 22.618L77.1509 31.4788H66.3199L61.2006 22.1385C60.5519 20.9292 59.9737 20.1439 59.466 19.7825C58.7749 19.31 57.9922 19.0737 57.1178 19.0737H56.2717V31.4788H46.6465ZM56.2717 13.2985H60.3121C60.7493 13.2985 61.5955 13.1595 62.8506 12.8816C63.4853 12.7565 64 12.4368 64.3949 11.9225C64.8039 11.4082 65.0084 10.8175 65.0084 10.1503C65.0084 9.1635 64.6911 8.40599 64.0564 7.87782C63.4218 7.34965 62.2301 7.08556 60.4814 7.08556H56.2717V13.2985Z" fill="#007AFF"/>
<path d="M103.509 22.5137H86.2472C86.4024 23.8759 86.7761 24.8905 87.3684 25.5577C88.2005 26.5167 89.2864 26.9963 90.6262 26.9963C91.4723 26.9963 92.2762 26.7878 93.0378 26.3708C93.5031 26.1067 94.0038 25.6411 94.5397 24.9739L103.023 25.7453C101.725 27.9692 100.16 29.5676 98.3263 30.5406C96.4929 31.4996 93.8628 31.9791 90.4358 31.9791C87.4601 31.9791 85.119 31.5691 83.4126 30.7491C81.7061 29.9151 80.2888 28.6016 79.1606 26.8086C78.0464 25.0017 77.4894 22.8821 77.4894 20.4497C77.4894 16.9888 78.6106 14.1881 80.8529 12.0476C83.1094 9.90711 86.219 8.83687 90.1819 8.83687C93.3974 8.83687 95.9359 9.31639 97.7975 10.2754C99.659 11.2345 101.076 12.6244 102.049 14.4452C103.023 16.266 103.509 18.6359 103.509 21.5547V22.5137ZM94.7512 18.4482C94.582 16.8081 94.1307 15.6336 93.3974 14.9247C92.6781 14.2159 91.7262 13.8615 90.5415 13.8615C89.1736 13.8615 88.0806 14.3966 87.2626 15.4668C86.7408 16.134 86.4094 17.1278 86.2684 18.4482H94.7512Z" fill="#007AFF"/>
<path d="M107.782 0.914284H116.392V6.68943H107.782V0.914284ZM107.782 9.33724H116.392V31.4788H107.782V9.33724Z" fill="#007AFF"/>
<path d="M121.892 9.33724H129.91V12.9441C131.108 11.4708 132.321 10.4214 133.548 9.79592C134.775 9.15655 136.27 8.83687 138.033 8.83687C140.416 8.83687 142.278 9.53878 143.618 10.9426C144.971 12.3325 145.648 14.4869 145.648 17.4058V31.4788H136.996V19.303C136.996 17.9131 136.735 16.9332 136.214 16.3633C135.692 15.7796 134.958 15.4877 134.014 15.4877C132.97 15.4877 132.124 15.8768 131.475 16.6552C130.826 17.4336 130.502 18.8304 130.502 20.8458V31.4788H121.892V9.33724Z" fill="#007AFF"/>
<path d="M151.254 0.914284H163.862L168.728 19.5115L173.572 0.914284H186.138V31.4788H178.311V8.1697L172.239 31.4788H165.153L159.102 8.1697V31.4788H151.254V0.914284Z" fill="#007AFF"/>
<path d="M199.549 16.5093L191.32 15.6545C191.631 14.2367 192.075 13.1248 192.653 12.3186C193.245 11.4986 194.092 10.7897 195.192 10.192C195.981 9.76117 197.067 9.42759 198.449 9.1913C199.831 8.95501 201.326 8.83687 202.934 8.83687C205.515 8.83687 207.588 8.98281 209.153 9.27469C210.719 9.55268 212.023 10.1434 213.067 11.0469C213.8 11.6723 214.379 12.5619 214.802 13.7155C215.225 14.8553 215.436 15.9463 215.436 16.9888V26.7669C215.436 27.8094 215.5 28.6294 215.627 29.2271C215.768 29.8109 216.064 30.5614 216.515 31.4788H208.434C208.11 30.9089 207.898 30.478 207.8 30.1861C207.701 29.8804 207.602 29.4078 207.503 28.7684C206.375 29.8387 205.254 30.6031 204.14 31.0618C202.617 31.6734 200.847 31.9791 198.83 31.9791C196.151 31.9791 194.113 31.3676 192.717 30.1444C191.334 28.9213 190.643 27.4132 190.643 25.6202C190.643 23.9384 191.144 22.5554 192.145 21.4713C193.147 20.3872 194.994 19.581 197.688 19.0528C200.917 18.4135 203.012 17.9687 203.971 17.7185C204.93 17.4544 205.945 17.1139 207.017 16.6969C207.017 15.6545 206.798 14.9247 206.361 14.5078C205.924 14.0908 205.155 13.8823 204.055 13.8823C202.645 13.8823 201.587 14.1047 200.882 14.5495C200.332 14.8969 199.888 15.5502 199.549 16.5093ZM207.017 20.9709C205.832 21.3879 204.598 21.7562 203.315 22.0759C201.566 22.5346 200.459 22.9863 199.994 23.4311C199.514 23.8898 199.274 24.411 199.274 24.9948C199.274 25.6619 199.507 26.211 199.972 26.6418C200.452 27.0588 201.15 27.2673 202.067 27.2673C203.026 27.2673 203.914 27.038 204.732 26.5793C205.564 26.1206 206.15 25.5646 206.488 24.9114C206.841 24.2442 207.017 23.3825 207.017 22.3261V20.9709Z" fill="#007AFF"/>
<path d="M219.075 25.3492L227.621 24.5569C227.974 25.5577 228.467 26.2735 229.102 26.7044C229.736 27.1353 230.583 27.3507 231.64 27.3507C232.797 27.3507 233.692 27.1075 234.327 26.621C234.821 26.2596 235.067 25.8079 235.067 25.2658C235.067 24.6542 234.743 24.1817 234.094 23.8481C233.629 23.6118 232.395 23.3199 230.392 22.9724C227.402 22.4582 225.322 21.9856 224.152 21.5547C222.995 21.1099 222.015 20.3663 221.211 19.3239C220.422 18.2814 220.027 17.093 220.027 15.7587C220.027 14.2993 220.457 13.0414 221.317 11.9851C222.177 10.9287 223.362 10.1434 224.871 9.62913C226.38 9.10095 228.404 8.83687 230.942 8.83687C233.622 8.83687 235.596 9.03841 236.865 9.44149C238.149 9.84456 239.214 10.47 240.06 11.3179C240.92 12.1657 241.632 13.3124 242.196 14.758L234.031 15.5502C233.819 14.8414 233.467 14.3201 232.973 13.9865C232.296 13.5418 231.478 13.3194 230.519 13.3194C229.546 13.3194 228.834 13.4931 228.383 13.8406C227.945 14.1742 227.727 14.5842 227.727 15.0707C227.727 15.6128 228.009 16.0228 228.573 16.3008C229.137 16.5788 230.364 16.8289 232.254 17.0513C235.117 17.371 237.246 17.8158 238.642 18.3857C240.039 18.9555 241.103 19.7686 241.837 20.825C242.584 21.8813 242.958 23.0419 242.958 24.3068C242.958 25.5855 242.563 26.8295 241.773 28.0387C240.998 29.2479 239.764 30.2139 238.071 30.9367C236.393 31.6456 234.101 32 231.196 32C227.092 32 224.166 31.4232 222.417 30.2695C220.682 29.1159 219.568 27.4758 219.075 25.3492Z" fill="#007AFF"/>
<path d="M257.47 0.914284V9.33724H262.208V15.5294H257.47V23.3894C257.47 24.3346 257.561 24.96 257.745 25.2658C258.027 25.7384 258.52 25.9747 259.226 25.9747C259.86 25.9747 260.749 25.794 261.891 25.4326L262.526 31.2911C260.396 31.7498 258.408 31.9791 256.56 31.9791C254.416 31.9791 252.837 31.7081 251.822 31.166C250.806 30.624 250.052 29.8039 249.558 28.7059C249.079 27.5939 248.839 25.8009 248.839 23.3269V15.5294H245.666V9.33724H248.839V5.2717L257.47 0.914284Z" fill="#007AFF"/>
<path d="M291.274 22.5137H274.012C274.167 23.8759 274.541 24.8905 275.134 25.5577C275.966 26.5167 277.051 26.9963 278.391 26.9963C279.237 26.9963 280.041 26.7878 280.803 26.3708C281.268 26.1067 281.769 25.6411 282.305 24.9739L290.788 25.7453C289.49 27.9692 287.925 29.5676 286.091 30.5406C284.258 31.4996 281.628 31.9791 278.201 31.9791C275.225 31.9791 272.884 31.5691 271.178 30.7491C269.471 29.9151 268.054 28.6016 266.926 26.8086C265.812 25.0017 265.254 22.8821 265.254 20.4497C265.254 16.9888 266.376 14.1881 268.618 12.0476C270.874 9.90711 273.984 8.83687 277.947 8.83687C281.162 8.83687 283.701 9.31639 285.563 10.2754C287.424 11.2345 288.841 12.6244 289.815 14.4452C290.788 16.266 291.274 18.6359 291.274 21.5547V22.5137ZM282.516 18.4482C282.347 16.8081 281.896 15.6336 281.162 14.9247C280.443 14.2159 279.491 13.8615 278.307 13.8615C276.939 13.8615 275.846 14.3966 275.028 15.4668C274.506 16.134 274.175 17.1278 274.033 18.4482H282.516Z" fill="#007AFF"/>
<path d="M295.315 9.33724H303.374V12.9649C304.15 11.3943 304.947 10.3171 305.765 9.73337C306.597 9.1357 307.619 8.83687 308.832 8.83687C310.101 8.83687 311.491 9.22605 313 10.0044L310.334 16.0506C309.319 15.6336 308.515 15.4251 307.923 15.4251C306.794 15.4251 305.92 15.8838 305.299 16.8011C304.411 18.0938 303.967 20.5123 303.967 24.0566V31.4788H295.315V9.33724Z" fill="#007AFF"/>
<rect width="32.6527" height="32" fill="#F68B1F"/>
<path d="M26.4852 16C26.4852 21.4983 21.9371 25.9555 16.3266 25.9555C10.7161 25.9555 6.16797 21.4983 6.16797 16C6.16797 10.5017 10.7161 6.04444 16.3266 6.04444C21.9371 6.04444 26.4852 10.5017 26.4852 16Z" fill="white"/>
<rect x="11.2471" y="13.5111" width="18.866" height="5.33333" rx="2.66667" fill="white"/>
<rect x="21.043" y="14.9333" width="7.61897" height="2.48889" rx="1.24444" fill="#F68B1F"/>
</svg>
