<svg width="36" height="10" viewBox="0 0 36 10" fill="none" xmlns="http://www.w3.org/2000/svg">
<g clip-path="url(#clip0)">
<path fill-rule="evenodd" clip-rule="evenodd" d="M0 0.0144639C1.08523 0.0173198 2.17047 0.0158918 3.2557 0.0144639C3.7669 0.00732422 4.2781 0.271493 4.55798 0.70273C4.81644 1.07114 4.91639 1.51665 5.04348 1.94075C5.43616 3.26445 5.82313 4.58958 6.21724 5.91328C6.22438 6.0318 6.40145 6.07749 6.43572 5.9504C6.83697 4.61528 7.22537 3.27445 7.62376 1.9379C7.76084 1.46668 7.87936 0.965471 8.19922 0.578499C8.40342 0.32861 8.69043 0.14869 9.00315 0.0658697C9.26875 -0.0083831 9.5472 0.0201757 9.8185 0.0158918C10.7724 0.0187477 11.7248 0.00732422 12.6772 0.0216036C12.6715 3.34584 12.6815 6.67008 12.6715 9.9929C11.642 9.98576 10.611 10.0015 9.58004 9.98433C9.58004 8.03519 9.58432 6.08463 9.57718 4.13549C9.57147 3.96129 9.28445 3.97699 9.26446 4.13978C8.65045 6.08749 8.03358 8.03376 7.42813 9.98433C6.70131 10.0015 5.97164 9.98861 5.24339 9.99147C4.6308 8.04376 4.0225 6.09462 3.4042 4.14834C3.37707 3.98842 3.18859 3.9827 3.08577 4.07695C3.0872 6.04607 3.08292 8.01663 3.0872 9.98718C2.05909 10 1.02954 9.98718 0 9.9929C0 6.6658 0 3.34013 0 0.0144639H0ZM14.0852 0.0201757C15.1133 0.00446834 16.1428 0.0287433 17.1724 0.00732422C17.1881 1.98073 17.1738 3.95415 17.1795 5.92756C17.2666 6.00609 17.4294 6.03037 17.4822 5.90043C18.1677 4.46392 18.8502 3.02741 19.5342 1.59091C19.7512 1.14539 19.9269 0.66132 20.281 0.301479C20.4395 0.151546 20.6366 0.00589628 20.865 0.0158918C21.9146 0.0173198 22.9627 0.0101801 24.0122 0.0201757C24.0136 3.34299 24.0136 6.66437 24.0122 9.98718C22.9841 9.99575 21.9531 9.99432 20.9236 9.98718C20.9236 8.01949 20.9279 6.05036 20.9222 4.08266C20.9193 3.91416 20.6337 3.92844 20.6037 4.0798C19.9583 5.50346 19.3157 6.92854 18.6717 8.35219C18.4732 8.78486 18.2847 9.23038 17.9877 9.60592C17.8235 9.81583 17.5822 10.0043 17.3023 9.99147C16.2299 9.99147 15.1576 9.9929 14.0866 9.99147C14.0866 6.66723 14.088 3.34299 14.0852 0.0201757ZM25.5173 4.57387C28.7501 4.55102 31.9844 4.57387 35.2172 4.56245C35.1087 5.00796 34.8203 5.39208 34.5147 5.72622C33.9135 6.37878 33.0482 6.77718 32.16 6.80145C30.9791 6.80717 29.7982 6.80003 28.6173 6.80431C28.6102 7.86812 28.6173 8.93051 28.6145 9.9929C27.5835 9.98861 26.5525 9.99575 25.523 9.98861C25.5173 8.1837 25.5273 6.37878 25.5173 4.57387Z" fill="#327351"/>
<path fill-rule="evenodd" clip-rule="evenodd" d="M25.125 0.0199667C27.5411 0.0156829 29.9557 0.0142549 32.3718 0.0171108C33.0044 0.0613769 33.6169 0.318406 34.1182 0.705377C34.8478 1.27227 35.339 2.14331 35.4204 3.06576C35.439 3.39847 35.4319 3.7326 35.3833 4.06246C33.9025 4.07102 32.4232 4.06246 30.9424 4.06531C30.4355 4.06103 29.9243 4.0853 29.4188 4.01105C28.2836 3.86683 27.1627 3.39418 26.3573 2.56312C25.6776 1.88342 25.2592 0.965261 25.125 0.0199667Z" fill="url(#paint0_linear)"/>
</g>
<defs>
<linearGradient id="paint0_linear" x1="25.125" y1="2.0405" x2="35.429" y2="2.0405" gradientUnits="userSpaceOnUse">
<stop stop-color="#48ABFC"/>
<stop offset="1" stop-color="#335DCD"/>
</linearGradient>
<clipPath id="clip0">
<rect width="35.4286" height="10" fill="white"/>
</clipPath>
</defs>
</svg>
