<svg width="31" height="10" viewBox="0 0 31 10" fill="none" xmlns="http://www.w3.org/2000/svg">
<g clip-path="url(#clip0)">
<path fill-rule="evenodd" clip-rule="evenodd" d="M30.8642 9.82886V9.76589L28.8346 0.184412C28.2185 0.139968 27.4074 0.172066 26.7728 0.178239C26.063 0.184412 25.8062 0.520215 25.579 1.04861C25.3519 1.57824 21.9432 9.66713 21.921 9.83503L24.5321 9.8338L25.0605 8.39429L28.2284 8.39552C28.316 8.62886 28.3642 8.99059 28.4185 9.2412C28.5654 9.92762 28.4691 9.84244 28.8173 9.83626C29.4938 9.82515 30.1914 9.85602 30.8642 9.82886ZM0 0.331326V0.473301C0.708642 0.58935 2.16914 1.05725 2.64815 1.41034C2.99506 1.66466 3.04691 2.13873 3.17901 2.64984L4.66173 8.38565C4.77778 8.84367 4.89012 9.39059 5.03704 9.82268L7.67284 9.83503C7.89012 9.41528 9.48642 5.52268 9.70247 5.00293L11.2136 1.38441C11.3198 1.12392 11.6679 0.4054 11.7062 0.184412L9.10494 0.178239L6.52099 6.68441C6.39506 6.48441 5.6037 1.92762 5.4716 1.24861C5.24444 0.0868813 4.49259 0.177005 3.31728 0.178239C2.26173 0.178239 1.12346 0.137499 0.0777778 0.183178L0 0.331326H0ZM15.3938 7.36713C15.3037 7.52515 14.937 9.24738 14.937 9.48688C16.779 10.2634 20.1123 10.2992 21.4716 8.47701C21.8704 7.94244 22.1765 7.04984 21.9963 6.1696C21.6716 4.57454 19.8914 4.18071 18.9494 3.4733C17.9481 2.72145 18.9407 1.70417 20.9568 2.12515C21.4136 2.22021 21.6901 2.36836 22.0778 2.48194L22.5099 0.41898C21.5926 0.183178 21.1469 0.00416523 20.0617 0.00786894C18.6136 0.0140418 16.921 0.580708 16.258 1.91404C15.4593 3.52515 16.2444 4.83256 17.7284 5.62021C18.263 5.90417 19.2469 6.3017 19.3951 6.81034C19.6556 7.70417 18.4605 7.99676 17.7086 7.96343C16.2852 7.90046 16.2062 7.60417 15.3938 7.36713ZM10.7173 9.83009L13.2136 9.8338L15.2815 0.183178L12.7926 0.179474L10.7173 9.83009ZM25.7852 6.4017L27.8173 6.41034L27.0864 2.85478C26.9889 2.99059 25.8407 6.19923 25.7852 6.4017Z" fill="url(#paint0_linear)"/>
</g>
<defs>
<linearGradient id="paint0_linear" x1="3.31728" y1="0.17824" x2="29.8494" y2="4.97577" gradientUnits="userSpaceOnUse">
<stop stop-color="#30315C"/>
<stop offset="1" stop-color="#393185"/>
</linearGradient>
<clipPath id="clip0">
<rect width="30.8642" height="10" fill="white"/>
</clipPath>
</defs>
</svg>
