<svg width="96" height="68" viewBox="0 0 96 68" fill="none" xmlns="http://www.w3.org/2000/svg">
<path d="M52.3404 46.3925C52.3404 42.6642 52.6809 38.6816 53.3617 34.4449C54.1277 30.1234 55.2766 25.8866 56.8085 21.7346C58.4255 17.4978 60.4681 13.5153 62.9362 9.78692C65.4894 5.97383 68.5532 2.71153 72.1277 0L86.0425 9.65981C83.6596 12.3713 81.8723 14.9558 80.6808 17.4131C79.4894 19.8704 78.5532 22.3277 77.8723 24.785C80.4255 25.2087 82.8085 26.0984 85.0213 27.4542C87.234 28.7252 89.1489 30.3352 90.766 32.2841C92.383 34.1483 93.6596 36.309 94.5957 38.7664C95.5319 41.1389 96 43.681 96 46.3925C96 49.3583 95.4043 52.1545 94.2128 54.7813C93.1064 57.3234 91.5319 59.6112 89.4894 61.6449C87.5319 63.5938 85.234 65.1614 82.5957 66.3477C79.9574 67.4492 77.1915 68 74.2979 68C71.234 68 68.3404 67.4492 65.617 66.3477C62.9787 65.1614 60.6383 63.5938 58.5957 61.6449C56.6383 59.6112 55.1064 57.3234 54 54.7813C52.8936 52.1545 52.3404 49.3583 52.3404 46.3925ZM0 46.3925C0 42.6642 0.340425 38.6816 1.02128 34.4449C1.78723 30.1234 2.93617 25.8866 4.46808 21.7346C6.08511 17.4978 8.17021 13.5153 10.7234 9.78692C13.2766 5.97383 16.3404 2.71153 19.9149 0L33.7021 9.65981C31.3191 12.3713 29.5319 14.9558 28.3404 17.4131C27.234 19.8704 26.3404 22.3277 25.6596 24.785C28.2128 25.2087 30.5957 26.0984 32.8085 27.4542C35.0213 28.7252 36.8936 30.3352 38.4255 32.2841C40.0426 34.1483 41.3191 36.309 42.2553 38.7664C43.1915 41.1389 43.6596 43.681 43.6596 46.3925C43.6596 49.3583 43.0638 52.1545 41.8723 54.7813C40.766 57.3234 39.1915 59.6112 37.1489 61.6449C35.1915 63.5938 32.8936 65.1614 30.2553 66.3477C27.617 67.4492 24.8511 68 21.9574 68C18.8936 68 16 67.4492 13.2766 66.3477C10.6383 65.1614 8.34043 63.5938 6.38298 61.6449C4.42553 59.6112 2.85106 57.3234 1.65957 54.7813C0.553191 52.1545 0 49.3583 0 46.3925Z" fill="#D6D6D6"/>
</svg>
