<svg width="13" height="13" fill="none" xmlns="http://www.w3.org/2000/svg"><path d="M11.096 0H1.904C.854 0 0 .854 0 1.904v9.192C0 12.146.854 13 1.904 13h9.192c1.05 0 1.904-.854 1.904-1.904V1.904C13 .854 12.146 0 11.096 0zm-4.57 9.902a3.432 3.432 0 01-3.428-3.427 3.432 3.432 0 013.427-3.428 3.432 3.432 0 013.428 3.428 3.432 3.432 0 01-3.428 3.427zm3.808-6.093a1.144 1.144 0 010-2.285c.63 0 1.143.512 1.143 1.142 0 .63-.513 1.143-1.143 1.143z" fill="#fff"/><path d="M10.334 2.285a.381.381 0 100 .762.381.381 0 000-.762zM6.525 3.809A2.67 2.67 0 003.86 6.475 2.67 2.67 0 006.525 9.14a2.67 2.67 0 002.666-2.666 2.67 2.67 0 00-2.666-2.666z" fill="#fff"/></svg>