<svg width="18" height="18" fill="none" xmlns="http://www.w3.org/2000/svg"><path d="M15.363 0H2.637A2.64 2.64 0 000 2.637v12.726A2.64 2.64 0 002.637 18h12.726A2.64 2.64 0 0018 15.363V2.637A2.64 2.64 0 0015.363 0zM9.035 13.71A4.751 4.751 0 014.29 8.966a4.751 4.751 0 014.746-4.746 4.751 4.751 0 014.746 4.746 4.751 4.751 0 01-4.746 4.746zm5.274-8.437c-.873 0-1.582-.71-1.582-1.582 0-.872.71-1.582 1.582-1.582.872 0 1.582.71 1.582 1.582 0 .873-.71 1.582-1.582 1.582z" fill="#818181"/><path d="M14.309 3.164a.528.528 0 100 1.055.528.528 0 000-1.055zM9.035 5.273a3.696 3.696 0 00-3.691 3.692 3.696 3.696 0 003.691 3.691 3.696 3.696 0 003.692-3.691 3.696 3.696 0 00-3.692-3.692z" fill="#818181"/></svg>