<svg width="17" height="17" fill="none" xmlns="http://www.w3.org/2000/svg"><g clip-path="url(#clip0)"><path d="M16.849 12.302c-.046-.077-.329-.691-1.689-1.953-1.424-1.322-1.233-1.108.482-3.393 1.045-1.392 1.463-2.242 1.332-2.606-.125-.346-.893-.255-.893-.255l-2.554.015s-.19-.025-.33.059c-.138.083-.226.274-.226.274s-.405 1.077-.944 1.993c-1.138 1.933-1.594 2.035-1.78 1.915-.433-.28-.324-1.124-.324-1.723 0-1.874.283-2.655-.554-2.857-.278-.067-.482-.111-1.193-.119-.912-.01-1.684.003-2.121.217-.291.142-.516.46-.378.478.168.023.551.103.754.38.262.356.253 1.157.253 1.157s.15 2.205-.352 2.479c-.345.188-.818-.196-1.833-1.95-.52-.898-.913-1.892-.913-1.892s-.075-.184-.21-.283c-.164-.12-.393-.159-.393-.159l-2.43.015s-.364.01-.498.17c-.119.14-.01.432-.01.432s1.903 4.449 4.056 6.692c1.975 2.056 4.217 1.921 4.217 1.921h1.016s.307-.034.463-.203c.145-.155.14-.446.14-.446s-.02-1.364.613-1.564c.623-.198 1.424 1.317 2.273 1.9.642.442 1.13.345 1.13.345l2.27-.032s1.189-.073.626-1.007z" fill="#fff"/></g><defs><clipPath id="clip0"><path fill="#fff" d="M0 0h17v17H0z"/></clipPath></defs></svg>