<svg id="Слой_1" data-name="Слой 1" xmlns="http://www.w3.org/2000/svg" viewBox="0 0 206.98 92.88"><defs><style>.cls-1{fill:#3d2e20;}.cls-2{fill:#4d4225;}.cls-3{fill:#faf4b1;}.cls-4{fill:#aad1cb;}.cls-5{fill:#efd980;}.cls-6{fill:#322d27;}</style></defs><title>aiwayarn</title><path class="cls-1" d="M472.92,542.93c-9.18,5.3-15.38,3.76-22-4.65-2.09-2.66-5.26-4.46-7.63-6.94-1.73-1.81-3.7-3.93-4.23-6.23a9.22,9.22,0,0,0-3.69-5.66c-3.93-3.12-4.7-8-1.87-12.8,2.52-4.28,5.67-8.19,8.56-12.26q4.88-6.9,9.75-13.79c.38-.54.68-1.14,1-1.71,6.19-10.63,15.25-16,27.74-15.43,6.27.79,12.57,1.44,18.82,2.39,5.49.84,10.9,1.26,16.34-.26,2.82-.78,5.7-.86,8,1.34,1.78,1.7,2.71,1,3.64-.81a25.45,25.45,0,0,1,9.17-10.32,14.77,14.77,0,0,1,10-2.56c4,.53,7.28,2.33,8.82,6.37,1.12,2.95,2.14,5.95,3.33,8.87,1.54,3.78,3.65,6.79,8.52,5.92,2.4-.43,3.12,1,2.27,3-2.7,6.33-7.2,10.73-14.11,12.16-6.35,1.31-10.72-.85-14.77-6.74-2.06-3-4.35-5.82-6.69-8.59-.54-.64-1.74-.71-2.63-1a20.13,20.13,0,0,0-.18,2.33,16.08,16.08,0,0,1-3.61,10.67c-8.16,10.36-12.29,22.29-14.57,35.12-1.73,9.74-10.1,16.94-20.15,18.06a43.91,43.91,0,0,1-6.49.16,24.12,24.12,0,0,0-13.33,3.42" transform="translate(-431.83 -453.13)"/><path class="cls-2" d="M562.26,481.57l-.07-1.41c.61-.18,1.49-.72,1.8-.49,2.59,1.89,2.45-.84,3.32-1.85-.79-.45-1.54-1.2-2.36-1.29a7.9,7.9,0,0,1-6.88-4.95q-2-4.77-3.86-9.63a10.23,10.23,0,0,0-14.48-5.76c-4.47,2.21-7.41,6-9.91,10.12,0,0,.87.64,1.33,1l-.07,1.66c.22.51.32,1.31.7,1.48,5.56,2.43,8.42,7.38,11.08,12.3,4,7.48,16.94,5.8,21-.12C565,480.9,562.91,481.78,562.26,481.57Z" transform="translate(-431.83 -453.13)"/><path class="cls-2" d="M471.68,541.29c5.3-3.36,11.11-3.95,17.23-3.89,12.17.11,20.11-6.56,22.37-18.41s6.1-23.08,13.69-32.78c1.69-2.17,2.68-4.94,3.74-7.53a5.32,5.32,0,0,0-1.37-6c-1.91-2-3.27.57-4.93.68l-1.23-1.06,2.73-2.68a20.35,20.35,0,0,0-4.2-2.4,7.35,7.35,0,0,0-3.92.29c-5.6,1.68-11.17,1-16.81.25-6.26-.85-12.55-1.67-18.85-2-8.93-.5-17.35,1.73-22.39,9.5-6,9.21-12.25,18.12-18.9,26.84-3.67,4.82-2.52,9.63,2.34,12.92,2.22,1.51,3.56,3,3.94,5.84.42,3.17,2.1,4.09,5.32,3.79a11.41,11.41,0,0,0,3.42-.67c1.69-.73,2.5,0,3,1.42a35.36,35.36,0,0,0,1.35,4.27c1.69,3.37,3.22,6.91,5.47,9.89,1.87,2.46,4.85,3.7,8,1.72" transform="translate(-431.83 -453.13)"/><path class="cls-3" d="M471.68,541.29c-3.14,2-6.12.74-8-1.72-2.25-3-3.78-6.52-5.47-9.89a35.36,35.36,0,0,1-1.35-4.27c-.51-1.44-1.32-2.15-3-1.42a11.41,11.41,0,0,1-3.42.67c-3.22.3-4.9-.62-5.32-3.79-.38-2.81-1.72-4.33-3.94-5.84-4.86-3.29-6-8.1-2.34-12.92,6.65-8.72,12.93-17.63,18.9-26.84,5-7.77,13.46-10,22.39-9.5,6.3.35,12.59,1.17,18.85,2,5.64.78,11.21,1.43,16.81-.25a7.35,7.35,0,0,1,3.92-.29,20.35,20.35,0,0,1,4.2,2.4l-2.73,2.68-8.89,6.48c-.57-.39-1.38-1.23-1.66-1.08-2.67,1.42-6,2.43-7.69,4.67-2.81,3.71-6.25,3-9.69,2.68-1.5-.14-2.51-.37-3.13,1.21-3.62,2.61-3.59,2.6-1.45,7.14a7.26,7.26,0,0,1,.26,2.27,7.82,7.82,0,0,1-1.77-1.08c-5.92-6.13-12.37-5.54-16.85,1.58-2.91,4.63-3.8,9.52-2,14.78,0,.5-.17,1.13.07,1.47,3.24,4.73,12.76,8.24,18.14,6.66a3.06,3.06,0,0,0,1.78-1.46c1.44-3.23,3.24-6.42,3.94-9.82,1.07-5.28,5-8,8.79-10.52a14.52,14.52,0,0,0,7.07-11.16l14.28-12.76c1.66-.11,3-2.65,4.93-.68a5.32,5.32,0,0,1,1.37,6c-1.06,2.59-2.05,5.36-3.74,7.53-7.59,9.7-11.41,20.9-13.69,32.78s-10.2,18.52-22.37,18.41c-6.12-.06-11.93.53-17.23,3.89" transform="translate(-431.83 -453.13)"/><path class="cls-1" d="M468.34,511c-1.83-5.26-.94-10.15,2-14.78,4.48-7.12,10.93-7.71,16.85-1.58a7.82,7.82,0,0,0,1.77,1.08,7.26,7.26,0,0,0-.26-2.27c-2.14-4.54-2.17-4.53,1.45-7.14a21.29,21.29,0,0,1,1.49,2.56c.54,1.28.92,2.64,1.37,4,1.54-.52,3.38-.68,4.58-1.64,5-4,9.84-8.22,14.73-12.36l8.89-6.48,1.23,1.06-14.28,12.76-3,3-2.07,1.08c-2.76,1.44-5.39,3.27-8.32,4.18-2.2.69-2.65,1.71-2.92,3.73a38.36,38.36,0,0,1-2.15,9.09c-3.08,7.57-10.51,9.88-17.49,5.74C471,512.24,469.63,511.64,468.34,511Zm18-2.6,1.06-.94.39-1.86-1.17,1.19-1,1-.93.94c-1.54.59-3.08,1.65-4.62,1.65a7.28,7.28,0,0,1-4.76-1.68c-2.2-2.22-1.8-8.32.22-10.75a5.3,5.3,0,0,1,6.35-1.42c1.32.5,3.26,2.32,3.09,3.19a11,11,0,0,1-3.07,5.23c-.69.71-2.47.38-3.76.45a17.16,17.16,0,0,1-2-.15c.22.77.21,1.77.7,2.27a4.16,4.16,0,0,0,2.52,1.25c2.49.09,6.64-3.76,7.42-6.64a7.81,7.81,0,0,0-3.78-8.47c-3.17-1.8-6.64-1.49-9,1.33a20.67,20.67,0,0,0-3.65,6.38c-1.85,5.24-.69,8.08,3.7,10.39s7.95,1.61,11.29-2.38Z" transform="translate(-431.83 -453.13)"/><path class="cls-4" d="M531.15,467.29c-.46-.34-1.35-.94-1.33-1,2.5-4.15,5.44-7.91,9.91-10.12A10.23,10.23,0,0,1,554.21,462q1.81,4.86,3.86,9.63a7.9,7.9,0,0,0,6.88,4.95c.82.09,1.57.84,2.36,1.29-.87,1-.73,3.74-3.32,1.85-.31-.23-1.19.31-1.8.49-4.93-.19-7.42-3.68-10.06-7.17C545.69,464.46,540.82,463.21,531.15,467.29Z" transform="translate(-431.83 -453.13)"/><path class="cls-4" d="M562.26,481.57c.65.21,2.73-.67,1.57,1-4,5.92-16.92,7.6-21,.12-2.66-4.92-5.52-9.87-11.08-12.3-.38-.17-.48-1-.7-1.48a28.72,28.72,0,0,0,2.87-.73c6-2.22,11-1.07,15.07,4.08,1.84,2.35,3.67,4.73,5.73,6.88S559.13,482.74,562.26,481.57Z" transform="translate(-431.83 -453.13)"/><path class="cls-1" d="M562.26,481.57c-3.13,1.17-5.52-.31-7.51-2.39s-3.89-4.53-5.73-6.88c-4-5.15-9.07-6.3-15.07-4.08a28.72,28.72,0,0,1-2.87.73l.07-1.66c9.67-4.08,14.54-2.83,21,5.7,2.64,3.49,5.13,7,10.06,7.17Z" transform="translate(-431.83 -453.13)"/><path class="cls-5" d="M468.34,511c1.29.66,2.62,1.26,3.87,2,7,4.14,14.41,1.83,17.49-5.74a38.36,38.36,0,0,0,2.15-9.09c.27-2,.72-3,2.92-3.73,2.93-.91,5.56-2.74,8.32-4.18,1.8,1.77,2,.36,2.07-1.08l3-3a14.52,14.52,0,0,1-7.07,11.16c-3.82,2.5-7.72,5.24-8.79,10.52-.7,3.4-2.5,6.59-3.94,9.82a3.06,3.06,0,0,1-1.78,1.46c-5.38,1.58-14.9-1.93-18.14-6.66C468.17,512.11,468.35,511.48,468.34,511Z" transform="translate(-431.83 -453.13)"/><path class="cls-5" d="M512.29,478.81c-4.89,4.14-9.72,8.37-14.73,12.36-1.2,1-3,1.12-4.58,1.64-.45-1.32-.83-2.68-1.37-4a21.29,21.29,0,0,0-1.49-2.56c.62-1.58,1.63-1.35,3.13-1.21,3.44.34,6.88,1,9.69-2.68,1.69-2.24,5-3.25,7.69-4.67C510.91,477.58,511.72,478.42,512.29,478.81Z" transform="translate(-431.83 -453.13)"/><path class="cls-5" d="M485.28,509.35c-3.34,4-6.84,4.73-11.29,2.38s-5.55-5.15-3.7-10.39a20.67,20.67,0,0,1,3.65-6.38c2.4-2.82,5.87-3.13,9-1.33a7.81,7.81,0,0,1,3.78,8.47c-.78,2.88-4.93,6.73-7.42,6.64a4.16,4.16,0,0,1-2.52-1.25c-.49-.5-.48-1.5-.7-2.27a17.16,17.16,0,0,0,2,.15c1.29-.07,3.07.26,3.76-.45a11,11,0,0,0,3.07-5.23c.17-.87-1.77-2.69-3.09-3.19a5.3,5.3,0,0,0-6.35,1.42c-2,2.43-2.42,8.53-.22,10.75a7.28,7.28,0,0,0,4.76,1.68c1.54,0,3.08-1.06,4.62-1.65A3.65,3.65,0,0,0,485.28,509.35Z" transform="translate(-431.83 -453.13)"/><path class="cls-3" d="M505.16,489.16c-.12,1.44-.27,2.85-2.07,1.08Z" transform="translate(-431.83 -453.13)"/><path class="cls-5" d="M486.58,506.77l1.17-1.19-.39,1.86Z" transform="translate(-431.83 -453.13)"/><path class="cls-5" d="M487.36,507.44l-1.06.94a4.43,4.43,0,0,0-.68-.62l1-1Z" transform="translate(-431.83 -453.13)"/><path class="cls-5" d="M486.3,508.38l-1,1a3.65,3.65,0,0,1-.59-.65l.93-.94A4.43,4.43,0,0,1,486.3,508.38Z" transform="translate(-431.83 -453.13)"/><path class="cls-6" d="M540.26,533.83a.31.31,0,0,1,.3-.08.69.69,0,0,1,.39.21q.19.16.12.33a14.06,14.06,0,0,1-2.48,3.77,9.43,9.43,0,0,1-3.27,2.14,16,16,0,0,1-.67,2.23,5.91,5.91,0,0,1-1.58,2.49,3.89,3.89,0,0,1-2.56.78,2.44,2.44,0,0,1-1.88-.67,1.9,1.9,0,0,1-.49-1.75,3.18,3.18,0,0,1,.48-1.16,3.62,3.62,0,0,1,.79-.89,6.06,6.06,0,0,1,1.15-.72,12.27,12.27,0,0,1,1.22-.54l1.33-.46c.09-.27.26-.83.5-1.65s.39-1.37.47-1.61q-1.82,2.6-4.17,2.6a2.84,2.84,0,0,1-2.15-.77A3,3,0,0,1,527,536a12.6,12.6,0,0,1,.41-3.15q.17-.62,2.14-7.29a5.82,5.82,0,0,1-1.48,1.16,8.3,8.3,0,0,1-1.58.71,4.93,4.93,0,0,0-1.26.62,1.66,1.66,0,0,0-.72,1c-.2.89.07,1.41.81,1.57.14,0,.21.15.23.36a1.23,1.23,0,0,1-.15.64.54.54,0,0,1-.47.31,3,3,0,0,1-2.38-.89,2.23,2.23,0,0,1-.54-2.13,2.68,2.68,0,0,1,.87-1.48,4.83,4.83,0,0,1,1.6-.92l1.93-.66a10.18,10.18,0,0,0,2.08-.94,6.34,6.34,0,0,0,1.82-1.54,1.55,1.55,0,0,1,1-.36,2.64,2.64,0,0,1,1.09.16c.3.14.44.29.41.48-.94,2.94-1.92,6.29-3,10a5.41,5.41,0,0,0-.32,2.39q.12,1.17,1.08,1.17A3.41,3.41,0,0,0,533,536a9.64,9.64,0,0,0,1.94-3.21c.31-1,.78-2.66,1.42-4.81s1.07-3.59,1.27-4.29a1,1,0,0,1,.82-.3,2.67,2.67,0,0,1,1.13.19q.54.23.51.57-1.4,4-4.35,14.62a6.72,6.72,0,0,0,2.5-1.76A11,11,0,0,0,540.26,533.83Zm-7.42,7.09a7.07,7.07,0,0,0-1.56.93,3,3,0,0,0-.95,1.07,1,1,0,0,0-.11.82.53.53,0,0,0,.57.33c.64-.05,1.16-.57,1.54-1.57C532.41,542.3,532.57,541.77,532.84,540.92Z" transform="translate(-431.83 -453.13)"/><path class="cls-6" d="M545.6,529.16a7.55,7.55,0,0,1,2.71.09,4.48,4.48,0,0,1,2.33,1.22c.1.19,0,.46-.32.83s-.58.51-.76.42a4.23,4.23,0,0,0-3.29-1,3.57,3.57,0,0,0-1.88.92,5.85,5.85,0,0,0-1.43,2,6.49,6.49,0,0,0-.63,2.16,1.81,1.81,0,0,0,.3,1.43c.54.52,1.27.15,2.2-1.11a12.33,12.33,0,0,0,2-4.23c.22-.25.63-.3,1.23-.16s.93.34,1,.6c-.46,1.59-.75,2.72-.87,3.38-.25,1.12-.11,1.68.41,1.68a2.87,2.87,0,0,0,1.66-1.08,8.36,8.36,0,0,0,1.58-2.51.27.27,0,0,1,.3-.07.77.77,0,0,1,.39.22c.13.11.16.22.12.31a12.16,12.16,0,0,1-2.31,3.39,4,4,0,0,1-2.84,1.32,1.35,1.35,0,0,1-1.26-.74,3.16,3.16,0,0,1-.19-2,8.9,8.9,0,0,1-1.59,2.08,3,3,0,0,1-2.09.8,2.44,2.44,0,0,1-2.11-1,3.56,3.56,0,0,1-.45-2.81,7.42,7.42,0,0,1,2.09-4.05A6.78,6.78,0,0,1,545.6,529.16Z" transform="translate(-431.83 -453.13)"/><path class="cls-6" d="M552.29,535a.36.36,0,0,1-.32.08.75.75,0,0,1-.39-.21c-.12-.11-.16-.22-.12-.31a30,30,0,0,0,2-5.08c-.64-.92-.71-1.7-.21-2.33a1.18,1.18,0,0,1,1.22-.48q.81.13.78,1.2a3.21,3.21,0,0,1-.09.71l.7.67.77.7a5.49,5.49,0,0,1,.66.69,3.28,3.28,0,0,1,.48.74,1.57,1.57,0,0,1,.13.72,1.36,1.36,0,0,1-.3.74,7,7,0,0,0-1.75,3.42c-.06.78.25,1.18.94,1.18a3.4,3.4,0,0,0,2.06-.91,7.56,7.56,0,0,0,2-2.77c.06-.07.16-.08.29,0a.88.88,0,0,1,.36.23c.12.12.16.21.13.29q-2.12,4.85-5.7,4.83a2.79,2.79,0,0,1-2-.7,2.43,2.43,0,0,1-.68-1.79,4.27,4.27,0,0,1,.32-1.51,8.68,8.68,0,0,1,.66-1.39q.33-.57.93-1.44a.9.9,0,0,0,.17-.46.84.84,0,0,0-.13-.49,4.37,4.37,0,0,0-.25-.41c-.08-.11-.2-.25-.37-.44s-.27-.3-.32-.34A26.06,26.06,0,0,1,552.29,535Z" transform="translate(-431.83 -453.13)"/><path class="cls-6" d="M567.77,529.09a1.72,1.72,0,0,1,1.68.89,3.51,3.51,0,0,1,.07,2.33c-.08.34-.24.9-.48,1.69s-.42,1.38-.51,1.76c-.24,1.15-.15,1.73.28,1.73s1-.36,1.58-1.08a11.08,11.08,0,0,0,1.57-2.6c.06-.08.15-.1.29-.07a.76.76,0,0,1,.37.22c.13.11.17.22.14.31a14.37,14.37,0,0,1-2.14,3.37,3.69,3.69,0,0,1-2.73,1.46,2,2,0,0,1-1.74-.63,2.37,2.37,0,0,1-.27-1.83c0-.29.22-1,.5-2.19s.45-1.84.49-2a2,2,0,0,0,.11-1,.51.51,0,0,0-.61-.44,2.51,2.51,0,0,0-1.38.68,8.65,8.65,0,0,0-1.5,1.57c-.37,1.23-.82,3-1.38,5.41-.12.28-.58.4-1.36.38s-1.2-.21-1.21-.56c.18-.77,1-3.79,2.44-9,.18-.26.6-.36,1.25-.29s1,.27,1.14.61c-.33,1.16-.49,1.76-.51,1.79C565.27,529.89,566.58,529.08,567.77,529.09Z" transform="translate(-431.83 -453.13)"/><path class="cls-6" d="M590.38,526.89c-.12.33-.48.49-1.06.47s-.9-.21-1-.54c.12-1.52-.49-2.28-1.82-2.28a1.77,1.77,0,0,0-1.27.46,2.2,2.2,0,0,0-.62,1.54,2.83,2.83,0,0,0,.39,1.61,7.45,7.45,0,0,0,1.15,1.51c.46.46.92,1,1.37,1.45a7.16,7.16,0,0,1,1.14,1.69,3.72,3.72,0,0,1,.39,2,4.2,4.2,0,0,1-1.56,3.23,6,6,0,0,1-3.84,1.12c-2,0-3.29-.68-4-2a5.67,5.67,0,0,1-.14-4.54c.16-.28.53-.37,1.14-.27s.91.31.91.63a4.29,4.29,0,0,0,.17,3.25,2.37,2.37,0,0,0,2.08,1.29,2.51,2.51,0,0,0,1.89-.68,3,3,0,0,0,.76-2,3,3,0,0,0-.43-1.69,6.89,6.89,0,0,0-1.17-1.54c-.47-.47-.93-1-1.39-1.44a6.13,6.13,0,0,1-1.13-1.71,4,4,0,0,1-.34-2,3.72,3.72,0,0,1,1.35-2.62,4.82,4.82,0,0,1,3.15-.92,4.17,4.17,0,0,1,3.11,1.14A3.22,3.22,0,0,1,590.38,526.89Z" transform="translate(-431.83 -453.13)"/><path class="cls-6" d="M593.71,539.1a3.4,3.4,0,0,1-1.61-.34,1.8,1.8,0,0,1-.9-1,5.61,5.61,0,0,1-.35-1.44,7.79,7.79,0,0,1,.09-1.86c.12-.75.24-1.4.36-2s.29-1.24.5-2.07h-.68c-.22-.13-.29-.4-.22-.8s.2-.64.4-.71h.92q1-3.45,1.77-5.25c.15-.24.59-.31,1.32-.19s1.1.33,1.12.65c-.48,1.34-1,2.93-1.57,4.79h1.94a.83.83,0,0,1,.19.84c-.07.39-.19.61-.38.67h-2.16c-.45,1.55-.74,2.68-.9,3.39-.55,2.45-.34,3.68.65,3.7a3.09,3.09,0,0,0,2.11-1,8,8,0,0,0,1.82-2.67.27.27,0,0,1,.3-.07.77.77,0,0,1,.38.23c.11.12.15.23.12.32Q596.86,539.08,593.71,539.1Z" transform="translate(-431.83 -453.13)"/><path class="cls-6" d="M605.1,529.44c.14-.26.55-.35,1.24-.28s1.07.28,1.15.6-.15.54-.31,1.08-.3,1-.4,1.39-.24.87-.38,1.43-.26,1-.34,1.44-.13.78-.17,1.16a2,2,0,0,0,.05.86q.1.3.33.3c.43,0,.94-.34,1.54-1.06a10.61,10.61,0,0,0,1.54-2.55.28.28,0,0,1,.3-.07.77.77,0,0,1,.39.22c.13.11.17.22.12.31-1.6,3.17-3.22,4.75-4.88,4.74a1.33,1.33,0,0,1-1.3-.88,3,3,0,0,1-.1-2q-1.82,3-4.32,2.92a1.88,1.88,0,0,1-1.76-.86,3.07,3.07,0,0,1-.22-2.15q.25-1.37,1-3.87c.48-1.67.74-2.58.79-2.74s.57-.39,1.29-.32,1.1.27,1.1.58-.24.89-.58,2.17-.59,2.28-.76,3a5.7,5.7,0,0,0-.28,1.75c0,.51.2.76.58.76a2.44,2.44,0,0,0,1.62-1,6.57,6.57,0,0,0,1.42-2.35Q604.08,533,605.1,529.44Z" transform="translate(-431.83 -453.13)"/><path class="cls-6" d="M618.53,523.25c.15-.23.6-.28,1.34-.16s1.09.34,1.08.64c-.34,1-.6,1.74-.77,2.27s-.48,1.44-.9,2.74-.74,2.35-.95,3.17-.41,1.71-.6,2.66a7.12,7.12,0,0,0-.22,2.13c0,.46.22.7.51.7s.94-.39,1.53-1.11a10.34,10.34,0,0,0,1.49-2.48.27.27,0,0,1,.3-.07.86.86,0,0,1,.39.22c.12.11.16.22.11.31a12.16,12.16,0,0,1-2.21,3.37,3.78,3.78,0,0,1-2.71,1.34,1.52,1.52,0,0,1-1.41-.74,3.06,3.06,0,0,1-.34-2c-.93,1.92-2.16,2.88-3.68,2.9a2.19,2.19,0,0,1-2.24-1.22,4.41,4.41,0,0,1-.18-3,8.08,8.08,0,0,1,1.6-3.24,5.56,5.56,0,0,1,2.82-2,6.1,6.1,0,0,1,3-.23C617.07,527.43,617.73,525.4,618.53,523.25Zm-2.46,7.68a3.07,3.07,0,0,0-1.93.31,4.29,4.29,0,0,0-1.75,1.72,6.32,6.32,0,0,0-.69,1.55,5.86,5.86,0,0,0-.28,1.7,1.2,1.2,0,0,0,.42,1.09c.38.3.87.17,1.47-.36a7.2,7.2,0,0,0,1.63-2.49A23,23,0,0,0,616.07,530.93Z" transform="translate(-431.83 -453.13)"/><path class="cls-6" d="M622.35,539.1a1.89,1.89,0,0,1-1.81-.73,3,3,0,0,1-.1-2.15q.46-1.92,1.86-6.8c.19-.26.62-.35,1.29-.26s1,.28,1.13.55c-1.08,3.84-1.65,5.92-1.73,6.26a3.41,3.41,0,0,0-.11,1.12c0,.28.16.41.39.4a2.64,2.64,0,0,0,1.77-1.12,9,9,0,0,0,1.59-2.56.27.27,0,0,1,.3-.07.89.89,0,0,1,.39.23c.12.12.16.23.11.32a15.63,15.63,0,0,1-.88,1.63,13.55,13.55,0,0,1-1.11,1.51,5.12,5.12,0,0,1-1.44,1.2A3.55,3.55,0,0,1,622.35,539.1Zm1.75-11.34a1.18,1.18,0,0,1-1.2-1.4,1.81,1.81,0,0,1,.56-1,1.47,1.47,0,0,1,1.07-.36,1.22,1.22,0,0,1,1,.39,1.16,1.16,0,0,1,.25,1,1.52,1.52,0,0,1-.51,1A1.68,1.68,0,0,1,624.1,527.76Z" transform="translate(-431.83 -453.13)"/><path class="cls-6" d="M632.28,529.09a3.56,3.56,0,0,1,2.35.69,2.9,2.9,0,0,1,1.06,1.82,6.35,6.35,0,0,1-.12,2.43,8.54,8.54,0,0,1-1,2.54c1.46.15,2.6-.77,3.45-2.76a.27.27,0,0,1,.3-.07.82.82,0,0,1,.39.22c.12.11.16.22.11.31-1.21,2.64-2.92,3.72-5.13,3.26a5.31,5.31,0,0,1-3.84,1.59A3.54,3.54,0,0,1,627,538c-.66-.76-.83-2-.51-3.59a6.75,6.75,0,0,1,2.12-3.79A5.6,5.6,0,0,1,632.28,529.09Zm-.29,1.64a2.42,2.42,0,0,0-1.79,1.17,6.35,6.35,0,0,0-1.09,2.51c-.4,2.05,0,3.08,1.08,3.08a2,2,0,0,0,1.56-.81.89.89,0,0,1,0-1,.73.73,0,0,1,.82-.38,9.66,9.66,0,0,0,.53-1.63,6.23,6.23,0,0,0,.17-1.48,1.78,1.78,0,0,0-.33-1.08A1.07,1.07,0,0,0,632,530.73Z" transform="translate(-431.83 -453.13)"/><path class="cls-6" d="M546.2,516.2l6.11-19.33h2.24L561,516.2h-2.4l-1.84-5.86h-6.67l-1.72,5.86Zm4.55-7.94h5.39l-1.64-5.35c-.51-1.64-.89-3-1.12-4a29.91,29.91,0,0,1-.87,3.69Z" transform="translate(-431.83 -453.13)"/><path class="cls-6" d="M566.61,516.2V496.87h2.1V516.2Z" transform="translate(-431.83 -453.13)"/><path class="cls-6" d="M578.7,516.2l-4.22-19.33h2.14L579,509.54c.25,1.3.48,2.62.67,4l.71-3.58,3-13.05H586l2.26,9.78a67.83,67.83,0,0,1,1.24,6.85c.2-1.26.46-2.66.78-4.21l2.49-12.42h2.11L590.5,516.2h-2l-3.35-14.73-.5-2.27c-.15.85-.3,1.6-.46,2.27l-3.36,14.73Z" transform="translate(-431.83 -453.13)"/><path class="cls-6" d="M597.74,516.2l6.11-19.33h2.25l6.49,19.33h-2.4l-1.85-5.86h-6.66L600,516.2Zm4.55-7.94h5.4L606,502.91c-.51-1.64-.88-3-1.12-4a26.68,26.68,0,0,1-.87,3.69Z" transform="translate(-431.83 -453.13)"/></svg>