<?xml version="1.0" encoding="utf-8"?>
<!-- Generator: Adobe Illustrator 24.0.3, SVG Export Plug-In . SVG Version: 6.00 Build 0)  -->
<svg version="1.1" id="Слой_1" xmlns="http://www.w3.org/2000/svg" xmlns:xlink="http://www.w3.org/1999/xlink" x="0px" y="0px"
	 viewBox="0 0 207 92.9" style="enable-background:new 0 0 207 92.9;" xml:space="preserve">
<style type="text/css">
	.st0{fill:#3D2E20;}
	.st1{fill:#4D4225;}
	.st2{fill:#FAF4B1;}
	.st3{fill:#AAD1CB;}
	.st4{fill:#EFD980;}
	.st5{fill:#E2E2E2;}
</style>
<title>aiwayarn</title>
<path class="st0" d="M41.1,89.8c-9.2,5.3-15.4,3.8-22-4.7c-2.1-2.7-5.3-4.5-7.6-6.9c-1.7-1.8-3.7-3.9-4.2-6.2
	c-0.5-2.3-1.8-4.3-3.7-5.7c-3.9-3.1-4.7-8-1.9-12.8c2.5-4.3,5.7-8.2,8.6-12.3c3.3-4.6,6.5-9.2,9.8-13.8c0.4-0.5,0.7-1.1,1-1.7
	c6.2-10.6,15.2-16,27.7-15.4c6.3,0.8,12.6,1.4,18.8,2.4c5.5,0.8,10.9,1.3,16.3-0.3c2.8-0.8,5.7-0.9,8,1.3c1.8,1.7,2.7,1,3.6-0.8
	c2-4.2,5.2-7.8,9.2-10.3c2.9-2,6.5-2.9,10-2.6c4,0.5,7.3,2.3,8.8,6.4c1.1,3,2.1,6,3.3,8.9c1.5,3.8,3.7,6.8,8.5,5.9
	c2.4-0.4,3.1,1,2.3,3c-2.7,6.3-7.2,10.7-14.1,12.2c-6.3,1.3-10.7-0.9-14.8-6.7c-2.1-3-4.3-5.8-6.7-8.6c-0.5-0.6-1.7-0.7-2.6-1
	c-0.1,0.8-0.2,1.6-0.2,2.3c0.1,3.9-1.2,7.7-3.6,10.7c-8.2,10.4-12.3,22.3-14.6,35.1C79.3,78,71,85.2,60.9,86.3
	c-2.2,0.2-4.3,0.3-6.5,0.2C49.7,86.3,45.1,87.4,41.1,89.8"/>
<path class="st1" d="M130.4,28.4l-0.1-1.4c0.6-0.2,1.5-0.7,1.8-0.5c2.6,1.9,2.5-0.8,3.3-1.9c-0.8-0.5-1.5-1.2-2.4-1.3
	c-3.1-0.2-5.7-2.1-6.9-5c-1.3-3.2-2.6-6.4-3.9-9.6c-1.8-5.4-7.6-8.2-13-6.4c-0.5,0.2-1,0.4-1.5,0.7c-4.5,2.2-7.4,6-9.9,10.1
	c0,0,0.9,0.6,1.3,1l-0.1,1.7c0.2,0.5,0.3,1.3,0.7,1.5c5.6,2.4,8.4,7.4,11.1,12.3c4,7.5,16.9,5.8,21-0.1
	C133.2,27.8,131.1,28.6,130.4,28.4z"/>
<path class="st1" d="M39.9,88.2c5.3-3.4,11.1-4,17.2-3.9c12.2,0.1,20.1-6.6,22.4-18.4s6.1-23.1,13.7-32.8c1.7-2.2,2.7-4.9,3.7-7.5
	c0.9-2.1,0.3-4.5-1.4-6c-1.9-2-3.3,0.6-4.9,0.7l-1.2-1.1l2.7-2.7c-1.3-1-2.7-1.8-4.2-2.4c-1.3-0.3-2.7-0.2-3.9,0.3
	c-5.6,1.7-11.2,1-16.8,0.2c-6.3-0.9-12.5-1.7-18.9-2c-8.9-0.5-17.4,1.7-22.4,9.5C19.9,31.3,13.7,40.2,7,49
	c-3.7,4.8-2.5,9.6,2.3,12.9c2.2,1.5,3.6,3,3.9,5.8c0.4,3.2,2.1,4.1,5.3,3.8c1.2,0,2.3-0.3,3.4-0.7c1.7-0.7,2.5,0,3,1.4
	c0.4,1.5,0.8,2.9,1.4,4.3c1.7,3.4,3.2,6.9,5.5,9.9C33.7,88.9,36.7,90.1,39.9,88.2"/>
<path class="st2" d="M39.9,88.2c-3.1,2-6.1,0.7-8-1.7c-2.2-3-3.8-6.5-5.5-9.9c-0.5-1.4-1-2.8-1.4-4.3c-0.5-1.4-1.3-2.2-3-1.4
	c-1.1,0.4-2.3,0.6-3.4,0.7c-3.2,0.3-4.9-0.6-5.3-3.8c-0.4-2.8-1.7-4.3-3.9-5.8C4.5,58.6,3.3,53.8,7,49c6.6-8.7,12.9-17.6,18.9-26.8
	c5-7.8,13.5-10,22.4-9.5c6.3,0.4,12.6,1.2,18.9,2c5.6,0.8,11.2,1.4,16.8-0.2c1.3-0.5,2.6-0.6,3.9-0.3c1.5,0.6,2.9,1.4,4.2,2.4
	l-2.7,2.7l-8.9,6.5c-0.6-0.4-1.4-1.2-1.7-1.1c-2.7,1.4-6,2.4-7.7,4.7c-2.8,3.7-6.2,3-9.7,2.7c-1.5-0.1-2.5-0.4-3.1,1.2
	c-3.6,2.6-3.6,2.6-1.5,7.1c0.2,0.7,0.3,1.5,0.3,2.3c-0.6-0.3-1.2-0.6-1.8-1.1C49.4,35.3,43,35.9,38.5,43c-2.9,4.6-3.8,9.5-2,14.8
	c0,0.5-0.2,1.1,0.1,1.5c3.2,4.7,12.8,8.2,18.1,6.7c0.8-0.2,1.4-0.8,1.8-1.5c1.4-3.2,3.2-6.4,3.9-9.8c1.1-5.3,5-8,8.8-10.5
	c4-2.4,6.6-6.5,7.1-11.2l14.3-12.8c1.7-0.1,3-2.6,4.9-0.7c1.7,1.5,2.2,3.9,1.4,6c-1.1,2.6-2,5.4-3.7,7.5
	C85.5,42.8,81.7,54,79.4,65.9S69.2,84.4,57.1,84.3C50.9,84.2,45.1,84.8,39.9,88.2"/>
<path class="st0" d="M36.5,57.9c-1.8-5.3-0.9-10.1,2-14.8c4.5-7.1,10.9-7.7,16.9-1.6c0.5,0.4,1.1,0.8,1.8,1.1c0-0.8-0.1-1.5-0.3-2.3
	c-2.1-4.5-2.2-4.5,1.5-7.1c0.6,0.8,1.1,1.7,1.5,2.6c0.5,1.3,0.9,2.6,1.4,4c1.5-0.5,3.4-0.7,4.6-1.6c5-4,9.8-8.2,14.7-12.4l8.9-6.5
	l1.2,1.1L76.3,33.1l-3,3l-2.1,1.1c-2.8,1.4-5.4,3.3-8.3,4.2C60.7,42,60.3,43,60,45.1c-0.3,3.1-1.1,6.2-2.1,9.1
	c-3.1,7.6-10.5,9.9-17.5,5.7C39.2,59.1,37.8,58.5,36.5,57.9z M54.5,55.3l1.1-0.9l0.4-1.9l-1.2,1.2l-1,1l-0.9,0.9
	c-1.5,0.6-3.1,1.6-4.6,1.6c-1.7,0-3.4-0.6-4.8-1.7c-2.2-2.2-1.8-8.3,0.2-10.8c1.5-1.9,4.2-2.5,6.4-1.4c1.3,0.5,3.3,2.3,3.1,3.2
	c-0.5,2-1.6,3.8-3.1,5.2c-0.7,0.7-2.5,0.4-3.8,0.5c-0.7,0-1.3-0.1-2-0.1c0.2,0.8,0.2,1.8,0.7,2.3c0.7,0.7,1.6,1.1,2.5,1.2
	c2.5,0.1,6.6-3.8,7.4-6.6c0.7-3.3-0.8-6.8-3.8-8.5c-3.2-1.8-6.6-1.5-9,1.3c-1.6,1.9-2.8,4.1-3.6,6.4c-1.9,5.2-0.7,8.1,3.7,10.4
	c4.4,2.3,8,1.6,11.3-2.4L54.5,55.3z"/>
<path class="st3" d="M99.3,14.2c-0.5-0.3-1.3-0.9-1.3-1c2.5-4.1,5.4-7.9,9.9-10.1c5-2.6,11.2-0.7,13.8,4.3c0.3,0.5,0.5,1,0.7,1.6
	c1.2,3.2,2.5,6.4,3.9,9.6c1.1,2.8,3.8,4.8,6.9,5c0.8,0.1,1.6,0.8,2.4,1.3c-0.9,1-0.7,3.7-3.3,1.9c-0.3-0.2-1.2,0.3-1.8,0.5
	c-4.9-0.2-7.4-3.7-10.1-7.2C113.9,11.3,109,10.1,99.3,14.2z"/>
<path class="st3" d="M130.4,28.4c0.7,0.2,2.7-0.7,1.6,1c-4,5.9-16.9,7.6-21,0.1c-2.7-4.9-5.5-9.9-11.1-12.3c-0.4-0.2-0.5-1-0.7-1.5
	c1-0.2,1.9-0.4,2.9-0.7c6-2.2,11-1.1,15.1,4.1c1.8,2.4,3.7,4.7,5.7,6.9S127.3,29.6,130.4,28.4z"/>
<path class="st0" d="M130.4,28.4c-3.1,1.2-5.5-0.3-7.5-2.4s-3.9-4.5-5.7-6.9c-4-5.1-9.1-6.3-15.1-4.1c-0.9,0.3-1.9,0.5-2.9,0.7
	l0.1-1.7c9.7-4.1,14.5-2.8,21,5.7c2.6,3.5,5.1,7,10.1,7.2L130.4,28.4z"/>
<path class="st4" d="M36.5,57.9c1.3,0.7,2.6,1.3,3.9,2c7,4.1,14.4,1.8,17.5-5.7c1.1-2.9,1.8-6,2.1-9.1c0.3-2,0.7-3,2.9-3.7
	c2.9-0.9,5.6-2.7,8.3-4.2c1.8,1.8,2,0.4,2.1-1.1l3-3c-0.4,4.6-3.1,8.8-7.1,11.2c-3.8,2.5-7.7,5.2-8.8,10.5c-0.7,3.4-2.5,6.6-3.9,9.8
	c-0.4,0.7-1,1.2-1.8,1.5c-5.4,1.6-14.9-1.9-18.1-6.7C36.3,59,36.5,58.4,36.5,57.9z"/>
<path class="st4" d="M80.5,25.7C75.6,29.8,70.7,34,65.7,38c-1.2,1-3,1.1-4.6,1.6c-0.5-1.3-0.8-2.7-1.4-4c-0.4-0.9-0.9-1.7-1.5-2.6
	c0.6-1.6,1.6-1.4,3.1-1.2c3.4,0.3,6.9,1,9.7-2.7c1.7-2.2,5-3.2,7.7-4.7C79.1,24.4,79.9,25.3,80.5,25.7z"/>
<path class="st4" d="M53.5,56.2c-3.3,4-6.8,4.7-11.3,2.4s-5.5-5.1-3.7-10.4c0.8-2.3,2.1-4.5,3.6-6.4c2.4-2.8,5.9-3.1,9-1.3
	c3,1.7,4.5,5.1,3.8,8.5c-0.8,2.9-4.9,6.7-7.4,6.6c-1-0.1-1.9-0.6-2.5-1.2c-0.5-0.5-0.5-1.5-0.7-2.3c0.7,0.1,1.3,0.1,2,0.1
	c1.3-0.1,3.1,0.3,3.8-0.5c1.5-1.4,2.6-3.2,3.1-5.2c0.2-0.9-1.8-2.7-3.1-3.2c-2.2-1-4.8-0.4-6.4,1.4c-2,2.4-2.4,8.5-0.2,10.8
	c1.3,1.1,3,1.7,4.8,1.7c1.5,0,3.1-1.1,4.6-1.6C53,55.8,53.2,56,53.5,56.2z"/>
<path class="st2" d="M73.3,36c-0.1,1.4-0.3,2.9-2.1,1.1L73.3,36z"/>
<path class="st4" d="M54.8,53.6l1.2-1.2l-0.4,1.9L54.8,53.6z"/>
<path class="st4" d="M55.5,54.3l-1.1,0.9c-0.2-0.2-0.4-0.4-0.7-0.6l1-1L55.5,54.3z"/>
<path class="st4" d="M54.5,55.2l-1,1c-0.2-0.2-0.4-0.4-0.6-0.6l0.9-0.9C54,54.8,54.3,55,54.5,55.2z"/>
<path class="st5" d="M108.4,80.7c0.1-0.1,0.2-0.1,0.3-0.1c0.1,0,0.3,0.1,0.4,0.2c0.1,0.1,0.2,0.2,0.1,0.3c-0.6,1.4-1.5,2.7-2.5,3.8
	c-0.9,0.9-2,1.7-3.3,2.1c-0.2,0.8-0.4,1.5-0.7,2.2c-0.3,1-0.9,1.8-1.6,2.5c-0.7,0.6-1.6,0.8-2.6,0.8c-0.7,0.1-1.4-0.2-1.9-0.7
	c-0.4-0.5-0.6-1.1-0.5-1.8c0.1-0.4,0.2-0.8,0.5-1.2c0.2-0.3,0.5-0.6,0.8-0.9c0.4-0.3,0.7-0.5,1.2-0.7c0.4-0.2,0.8-0.4,1.2-0.5
	l1.3-0.5c0.1-0.3,0.3-0.8,0.5-1.7s0.4-1.4,0.5-1.6c-1.2,1.7-2.6,2.6-4.2,2.6c-0.8,0.1-1.6-0.2-2.2-0.8c-0.5-0.6-0.8-1.3-0.8-2.1
	c0-1.1,0.1-2.1,0.4-3.2c0.1-0.4,0.8-2.8,2.1-7.3c-0.4,0.5-0.9,0.9-1.5,1.2c-0.5,0.3-1,0.5-1.6,0.7c-0.4,0.1-0.9,0.4-1.3,0.6
	c-0.4,0.2-0.6,0.6-0.7,1c-0.2,0.9,0.1,1.4,0.8,1.6c0.1,0,0.2,0.2,0.2,0.4c0,0.2,0,0.4-0.2,0.6c-0.1,0.2-0.3,0.3-0.5,0.3
	c-0.9,0.1-1.8-0.3-2.4-0.9c-0.5-0.6-0.7-1.4-0.5-2.1c0.1-0.6,0.4-1.1,0.9-1.5c0.5-0.4,1-0.7,1.6-0.9l1.9-0.7
	c0.7-0.2,1.4-0.5,2.1-0.9c0.7-0.4,1.3-0.9,1.8-1.5c0.3-0.2,0.6-0.4,1-0.4c0.4,0,0.7,0,1.1,0.2c0.3,0.1,0.4,0.3,0.4,0.5
	c-0.9,2.9-1.9,6.3-3,10c-0.3,0.8-0.4,1.6-0.3,2.4c0.1,0.8,0.4,1.2,1.1,1.2c0.9,0,1.8-0.5,2.4-1.2c0.9-0.9,1.5-2,1.9-3.2
	c0.3-1,0.8-2.7,1.4-4.8s1.1-3.6,1.3-4.3c0.2-0.2,0.5-0.3,0.8-0.3c0.4,0,0.8,0,1.1,0.2c0.4,0.2,0.5,0.3,0.5,0.6
	c-0.9,2.7-2.4,7.5-4.3,14.6c1-0.4,1.8-1,2.5-1.8C107.3,82.9,107.9,81.9,108.4,80.7z M101,87.8c-0.6,0.2-1.1,0.6-1.6,0.9
	c-0.4,0.3-0.7,0.6-1,1.1c-0.2,0.2-0.2,0.5-0.1,0.8c0.1,0.2,0.3,0.4,0.6,0.3c0.6,0,1.2-0.6,1.5-1.6C100.6,89.2,100.7,88.6,101,87.8
	L101,87.8z"/>
<path class="st5" d="M113.8,76c0.9-0.1,1.8-0.1,2.7,0.1c0.9,0.2,1.7,0.6,2.3,1.2c0.1,0.2,0,0.5-0.3,0.8s-0.6,0.5-0.8,0.4
	c-0.9-0.8-2.1-1.1-3.3-1c-0.7,0.1-1.4,0.4-1.9,0.9c-0.6,0.6-1.1,1.2-1.4,2c-0.3,0.7-0.5,1.4-0.6,2.2c-0.1,0.5,0,1,0.3,1.4
	c0.5,0.5,1.3,0.2,2.2-1.1c0.9-1.3,1.6-2.7,2-4.2c0.2-0.2,0.6-0.3,1.2-0.2s0.9,0.3,1,0.6c-0.5,1.6-0.8,2.7-0.9,3.4
	c-0.2,1.1-0.1,1.7,0.4,1.7c0.7-0.2,1.3-0.5,1.7-1.1c0.7-0.7,1.2-1.6,1.6-2.5c0.1-0.1,0.2-0.1,0.3-0.1c0.1,0,0.3,0.1,0.4,0.2
	c0.1,0.1,0.2,0.2,0.1,0.3c-0.6,1.3-1.4,2.4-2.3,3.4c-0.7,0.8-1.8,1.3-2.8,1.3c-0.5,0-1-0.3-1.3-0.7c-0.3-0.6-0.3-1.3-0.2-2
	c-0.4,0.8-1,1.5-1.6,2.1c-0.6,0.5-1.3,0.8-2.1,0.8c-0.8,0-1.6-0.3-2.1-1c-0.5-0.8-0.7-1.9-0.5-2.8c0.3-1.5,1-3,2.1-4
	C111,77,112.3,76.3,113.8,76z"/>
<path class="st5" d="M120.5,81.9c-0.1,0.1-0.2,0.1-0.3,0.1c-0.1,0-0.3-0.1-0.4-0.2c-0.1-0.1-0.2-0.2-0.1-0.3c0.8-1.6,1.5-3.3,2-5.1
	c-0.6-0.9-0.7-1.7-0.2-2.3c0.3-0.4,0.8-0.6,1.2-0.5c0.5,0.1,0.8,0.5,0.8,1.2c0,0.2,0,0.5-0.1,0.7l0.7,0.7l0.8,0.7
	c0.2,0.2,0.5,0.4,0.7,0.7c0.2,0.2,0.4,0.5,0.5,0.7c0.1,0.2,0.1,0.5,0.1,0.7c0,0.3-0.1,0.5-0.3,0.7c-0.9,1-1.5,2.1-1.8,3.4
	c-0.1,0.8,0.2,1.2,0.9,1.2c0.8-0.1,1.5-0.4,2.1-0.9c0.9-0.8,1.6-1.7,2-2.8c0.1-0.1,0.2-0.1,0.3,0c0.1,0,0.3,0.1,0.4,0.2
	c0.1,0.1,0.2,0.2,0.1,0.3c-1.4,3.2-3.3,4.8-5.7,4.8c-0.7,0-1.5-0.2-2-0.7c-0.5-0.5-0.7-1.1-0.7-1.8c0-0.5,0.1-1,0.3-1.5
	c0.2-0.5,0.4-0.9,0.7-1.4c0.2-0.4,0.5-0.9,0.9-1.4c0.1-0.1,0.2-0.3,0.2-0.5c0-0.2,0-0.3-0.1-0.5c-0.1-0.1-0.2-0.3-0.2-0.4
	c-0.1-0.1-0.2-0.2-0.4-0.4s-0.3-0.3-0.3-0.3C121.9,78.7,121.3,80.3,120.5,81.9z"/>
<path class="st5" d="M135.9,76c0.7-0.1,1.3,0.3,1.7,0.9c0.3,0.7,0.3,1.6,0.1,2.3c-0.1,0.3-0.2,0.9-0.5,1.7s-0.4,1.4-0.5,1.8
	c-0.2,1.2-0.2,1.7,0.3,1.7s1-0.4,1.6-1.1c0.6-0.8,1.2-1.7,1.6-2.6c0.1-0.1,0.2-0.1,0.3-0.1c0.1,0,0.3,0.1,0.4,0.2
	c0.1,0.1,0.2,0.2,0.1,0.3c-0.6,1.2-1.3,2.4-2.1,3.4c-0.7,0.9-1.6,1.4-2.7,1.5c-0.6,0.1-1.3-0.1-1.7-0.6c-0.3-0.5-0.4-1.2-0.3-1.8
	c0-0.3,0.2-1,0.5-2.2s0.5-1.8,0.5-2c0.1-0.3,0.2-0.7,0.1-1c0-0.3-0.3-0.5-0.6-0.4c0,0,0,0,0,0c-0.5,0.1-1,0.3-1.4,0.7
	c-0.6,0.5-1.1,1-1.5,1.6c-0.4,1.2-0.8,3-1.4,5.4c-0.1,0.3-0.6,0.4-1.4,0.4s-1.2-0.2-1.2-0.6c0.2-0.8,1-3.8,2.4-9
	c0.2-0.3,0.6-0.4,1.2-0.3s1,0.3,1.1,0.6c-0.3,1.2-0.5,1.8-0.5,1.8C133.4,76.8,134.8,76,135.9,76z"/>
<path class="st5" d="M158.6,73.8c-0.1,0.3-0.5,0.5-1.1,0.5s-0.9-0.2-1-0.5c0.1-1.5-0.5-2.3-1.8-2.3c-0.5,0-0.9,0.1-1.3,0.5
	c-0.4,0.4-0.6,1-0.6,1.5c0,0.6,0.1,1.1,0.4,1.6c0.3,0.6,0.7,1.1,1.2,1.5c0.5,0.5,0.9,1,1.4,1.5c0.5,0.5,0.8,1.1,1.1,1.7
	c0.3,0.6,0.4,1.3,0.4,2c0,1.3-0.6,2.4-1.6,3.2c-1.1,0.8-2.5,1.2-3.8,1.1c-2,0-3.3-0.7-4-2c-0.7-1.4-0.7-3.1-0.1-4.5
	c0.2-0.3,0.5-0.4,1.1-0.3s0.9,0.3,0.9,0.6c-0.4,1.1-0.3,2.2,0.2,3.2c0.4,0.8,1.2,1.3,2.1,1.3c0.7,0,1.4-0.2,1.9-0.7
	c0.5-0.6,0.8-1.3,0.8-2c0-0.6-0.1-1.2-0.4-1.7c-0.3-0.6-0.7-1.1-1.2-1.5c-0.5-0.5-0.9-1-1.4-1.4c-0.5-0.5-0.9-1.1-1.1-1.7
	c-0.3-0.6-0.4-1.3-0.3-2c0.1-1,0.6-2,1.3-2.6c0.9-0.7,2-1,3.2-0.9c1.1-0.1,2.3,0.3,3.1,1.1C158.5,71.7,158.8,72.7,158.6,73.8z"/>
<path class="st5" d="M161.9,86c-0.6,0-1.1-0.1-1.6-0.3c-0.4-0.2-0.7-0.6-0.9-1c-0.2-0.5-0.3-0.9-0.3-1.4c0-0.6,0-1.2,0.1-1.9
	c0.1-0.8,0.2-1.4,0.4-2s0.3-1.2,0.5-2.1h-0.7c-0.2-0.1-0.3-0.4-0.2-0.8s0.2-0.6,0.4-0.7h0.9c0.7-2.3,1.3-4.1,1.8-5.2
	c0.2-0.2,0.6-0.3,1.3-0.2s1.1,0.3,1.1,0.7c-0.5,1.3-1,2.9-1.6,4.8h1.9c0.2,0.2,0.3,0.5,0.2,0.8c-0.1,0.4-0.2,0.6-0.4,0.7h-2.2
	c-0.5,1.5-0.7,2.7-0.9,3.4c-0.5,2.5-0.3,3.7,0.7,3.7c0.8,0,1.6-0.4,2.1-1c0.8-0.8,1.4-1.7,1.8-2.7c0.1-0.1,0.2-0.1,0.3-0.1
	c0.1,0,0.3,0.1,0.4,0.2c0.1,0.1,0.2,0.2,0.1,0.3C165.7,84.4,164,86,161.9,86z"/>
<path class="st5" d="M173.3,76.3c0.1-0.3,0.5-0.3,1.2-0.3s1.1,0.3,1.2,0.6s-0.2,0.5-0.3,1.1s-0.3,1-0.4,1.4s-0.2,0.9-0.4,1.4
	s-0.3,1-0.3,1.4s-0.1,0.8-0.2,1.2c0,0.3,0,0.6,0,0.9c0.1,0.2,0.2,0.3,0.3,0.3c0.4,0,0.9-0.3,1.5-1.1c0.6-0.8,1.1-1.6,1.5-2.5
	c0.1-0.1,0.2-0.1,0.3-0.1c0.1,0,0.3,0.1,0.4,0.2c0.1,0.1,0.2,0.2,0.1,0.3c-1.6,3.2-3.2,4.8-4.9,4.7c-0.6,0-1.1-0.3-1.3-0.9
	c-0.3-0.6-0.3-1.3-0.1-2c-1.2,2-2.7,3-4.3,2.9c-0.7,0.1-1.4-0.3-1.8-0.9c-0.3-0.7-0.4-1.4-0.2-2.2c0.2-0.9,0.5-2.2,1-3.9
	c0.5-1.7,0.7-2.6,0.8-2.7s0.6-0.4,1.3-0.3s1.1,0.3,1.1,0.6s-0.2,0.9-0.6,2.2s-0.6,2.3-0.8,3c-0.2,0.6-0.3,1.2-0.3,1.8
	c0,0.5,0.2,0.8,0.6,0.8c0.7-0.1,1.2-0.5,1.6-1c0.6-0.7,1.1-1.5,1.4-2.3C172.1,80.2,172.6,78.7,173.3,76.3z"/>
<path class="st5" d="M186.7,70.1c0.2-0.2,0.6-0.3,1.3-0.2s1.1,0.3,1.1,0.6c-0.3,1-0.6,1.7-0.8,2.3s-0.5,1.4-0.9,2.7s-0.7,2.3-1,3.2
	s-0.4,1.7-0.6,2.7c-0.2,0.7-0.3,1.4-0.2,2.1c0,0.5,0.2,0.7,0.5,0.7s0.9-0.4,1.5-1.1c0.6-0.8,1.1-1.6,1.5-2.5
	c0.1-0.1,0.2-0.1,0.3-0.1c0.1,0,0.3,0.1,0.4,0.2c0.1,0.1,0.2,0.2,0.1,0.3c-0.5,1.2-1.3,2.4-2.2,3.4c-0.7,0.8-1.7,1.3-2.7,1.3
	c-0.6,0-1.1-0.2-1.4-0.7c-0.3-0.6-0.5-1.3-0.3-2c-0.9,1.9-2.2,2.9-3.7,2.9c-0.9,0.1-1.8-0.4-2.2-1.2c-0.4-0.9-0.5-2-0.2-3
	c0.3-1.2,0.8-2.3,1.6-3.2c0.7-0.9,1.7-1.6,2.8-2c1-0.3,2-0.4,3-0.2C185.2,74.3,185.9,72.3,186.7,70.1z M184.2,77.8
	c-0.7-0.1-1.3,0-1.9,0.3c-0.7,0.4-1.3,1-1.8,1.7c-0.3,0.5-0.5,1-0.7,1.5c-0.2,0.5-0.3,1.1-0.3,1.7c-0.1,0.4,0.1,0.8,0.4,1.1
	c0.4,0.3,0.9,0.2,1.5-0.4c0.7-0.7,1.3-1.6,1.6-2.5C183.6,80.2,184,79,184.2,77.8z"/>
<path class="st5" d="M190.5,86c-0.7,0.1-1.4-0.2-1.8-0.7c-0.3-0.7-0.3-1.4-0.1-2.2c0.3-1.3,0.9-3.5,1.9-6.8c0.2-0.3,0.6-0.3,1.3-0.3
	s1,0.3,1.1,0.5c-1.1,3.8-1.7,5.9-1.7,6.3c-0.1,0.4-0.1,0.7-0.1,1.1c0,0.3,0.2,0.4,0.4,0.4c0.7-0.1,1.4-0.5,1.8-1.1
	c0.7-0.8,1.2-1.6,1.6-2.6c0.1-0.1,0.2-0.1,0.3-0.1c0.1,0,0.3,0.1,0.4,0.2c0.1,0.1,0.2,0.2,0.1,0.3c-0.3,0.6-0.6,1.1-0.9,1.6
	c-0.3,0.5-0.7,1-1.1,1.5c-0.4,0.5-0.9,0.9-1.4,1.2C191.7,85.8,191.1,86,190.5,86z M192.3,74.6c-0.7,0-1.2-0.5-1.2-1.1
	c0-0.1,0-0.2,0-0.3c0.1-0.4,0.3-0.7,0.6-1c0.3-0.3,0.7-0.4,1.1-0.4c0.4,0,0.7,0.1,1,0.4c0.2,0.3,0.3,0.6,0.2,1c0,0.4-0.2,0.7-0.5,1
	C193.1,74.5,192.7,74.7,192.3,74.6L192.3,74.6z"/>
<path class="st5" d="M200.5,76c0.8-0.1,1.7,0.2,2.3,0.7c0.6,0.5,0.9,1.1,1.1,1.8c0.1,0.8,0.1,1.6-0.1,2.4c-0.2,0.9-0.5,1.8-1,2.5
	c1.5,0.2,2.6-0.8,3.5-2.8c0.1-0.1,0.2-0.1,0.3-0.1c0.1,0,0.3,0.1,0.4,0.2c0.1,0.1,0.2,0.2,0.1,0.3c-1.2,2.6-2.9,3.7-5.1,3.3
	c-1,1-2.4,1.6-3.8,1.6c-1.1,0.1-2.1-0.3-2.8-1.1c-0.7-0.8-0.8-2-0.5-3.6c0.3-1.5,1-2.8,2.1-3.8C197.8,76.5,199.1,76,200.5,76z
	 M200.2,77.6c-0.7,0.1-1.4,0.5-1.8,1.2c-0.5,0.7-0.9,1.6-1.1,2.5c-0.4,2,0,3.1,1.1,3.1c0.6,0,1.2-0.3,1.6-0.8c-0.2-0.3-0.2-0.7,0-1
	c0.2-0.3,0.5-0.5,0.8-0.4c0.2-0.5,0.4-1.1,0.5-1.6c0.1-0.5,0.2-1,0.2-1.5c0-0.4-0.1-0.8-0.3-1.1C200.9,77.7,200.5,77.6,200.2,77.6
	L200.2,77.6z"/>
<path class="st5" d="M114.4,63.1l6.1-19.3h2.2l6.5,19.3h-2.4l-1.8-5.9h-6.7l-1.7,5.9H114.4z M118.9,55.1h5.4l-1.6-5.4
	c-0.5-1.6-0.9-3-1.1-4c-0.2,1.2-0.5,2.5-0.9,3.7L118.9,55.1z"/>
<path class="st5" d="M134.8,63.1V43.7h2.1v19.3H134.8z"/>
<path class="st5" d="M146.9,63.1l-4.2-19.3h2.1l2.4,12.7c0.2,1.3,0.5,2.6,0.7,4l0.7-3.6l3-13h2.6l2.3,9.8c0.5,2.3,0.9,4.5,1.2,6.8
	c0.2-1.3,0.5-2.7,0.8-4.2l2.5-12.4h2.1l-4.4,19.3h-2l-3.3-14.7l-0.5-2.3c-0.2,0.9-0.3,1.6-0.5,2.3L149,63.1H146.9z"/>
<path class="st5" d="M165.9,63.1l6.1-19.3h2.2l6.5,19.3h-2.4l-1.8-5.9h-6.7l-1.7,5.9H165.9z M170.5,55.1h5.4l-1.7-5.4
	c-0.5-1.6-0.9-3-1.1-4c-0.2,1.2-0.5,2.5-0.9,3.7L170.5,55.1z"/>
</svg>
