<svg width="24" height="24" viewBox="0 0 24 24" fill="none" xmlns="http://www.w3.org/2000/svg">
<path d="M13.5844 9.38437H11.2734V7.07344C11.2734 6.54375 10.8469 6.11719 10.3172 6.11719C9.7875 6.11719 9.36094 6.54375 9.36094 7.07344V9.38437H7.05C6.52031 9.38437 6.09375 9.81094 6.09375 10.3406C6.09375 10.8703 6.52031 11.2969 7.05 11.2969H9.36094V13.6078C9.36094 14.1375 9.7875 14.5641 10.3172 14.5641C10.8469 14.5641 11.2734 14.1375 11.2734 13.6078V11.2969H13.5844C14.1141 11.2969 14.5406 10.8703 14.5406 10.3406C14.5406 9.81094 14.1094 9.38437 13.5844 9.38437Z" fill="#007AFF"/>
<path d="M10.3219 18.2203C5.96719 18.2203 2.4375 14.6953 2.4375 10.3406C2.4375 5.98593 5.96719 2.46093 10.3219 2.46093C14.6766 2.46093 18.2016 5.99061 18.2016 10.3406C18.2016 14.6906 14.6719 18.2203 10.3219 18.2203ZM23.2031 21.8766L17.8922 16.5656C19.2844 14.8734 20.1234 12.7031 20.1234 10.3406C20.1234 4.92655 15.7359 0.534363 10.3172 0.534363C4.89844 0.534363 0.515625 4.92655 0.515625 10.3406C0.515625 15.7547 4.90312 20.1469 10.3219 20.1469C12.6844 20.1469 14.85 19.3125 16.5422 17.9203L21.8531 23.2312C22.0969 23.4797 22.8422 23.6016 23.2078 23.2312C23.5781 22.8562 23.5781 22.2516 23.2031 21.8766Z" fill="#007AFF"/>
</svg>
