<svg width="16" height="16" viewBox="0 0 16 16" fill="none" xmlns="http://www.w3.org/2000/svg">
<g clip-path="url(#clip0)">
<path d="M12.0842 9.51251C10.9721 9.51251 10.0674 10.4172 10.0674 11.5293C10.0674 12.6414 10.9721 13.5461 12.0842 13.5461C13.1965 13.5461 14.101 12.6414 14.101 11.5293C14.101 10.4172 13.1963 9.51251 12.0842 9.51251ZM12.0842 12.5377C11.5281 12.5377 11.0758 12.0854 11.0758 11.5293C11.0758 10.9732 11.5281 10.5209 12.0842 10.5209C12.6403 10.5209 13.0926 10.9732 13.0926 11.5293C13.0926 12.0855 12.6403 12.5377 12.0842 12.5377Z" fill="#007AFF"/>
<path d="M5.19259 9.51251C4.0805 9.51251 3.17578 10.4172 3.17578 11.5293C3.17578 12.6414 4.0805 13.5461 5.19259 13.5461C6.30469 13.5461 7.20941 12.6414 7.20941 11.5293C7.20941 10.4172 6.30469 9.51251 5.19259 9.51251ZM5.19259 12.5377C4.63647 12.5377 4.18419 12.0854 4.18419 11.5293C4.18419 10.9732 4.63647 10.5209 5.19259 10.5209C5.74856 10.5209 6.201 10.9732 6.201 11.5293C6.201 12.0855 5.74872 12.5377 5.19259 12.5377Z" fill="#007AFF"/>
<path d="M13.442 3.73988C13.3563 3.56963 13.182 3.46222 12.9914 3.46222H10.3359V4.47063H12.6805L14.0534 7.20138L14.9546 6.74826L13.442 3.73988Z" fill="#007AFF"/>
<path d="M10.572 11.0421H6.75684V12.0505H10.572V11.0421Z" fill="#007AFF"/>
<path d="M3.68077 11.0421H1.9329C1.6544 11.0421 1.42871 11.2678 1.42871 11.5462C1.42871 11.8247 1.65443 12.0504 1.9329 12.0504H3.6808C3.9593 12.0504 4.18499 11.8247 4.18499 11.5462C4.18499 11.2677 3.95927 11.0421 3.68077 11.0421Z" fill="#007AFF"/>
<path d="M15.8942 7.95967L14.9025 6.68236C14.8072 6.55933 14.6602 6.48739 14.5043 6.48739H10.8405V2.95798C10.8405 2.67948 10.6147 2.4538 10.3363 2.4538H1.9329C1.6544 2.4538 1.42871 2.67951 1.42871 2.95798C1.42871 3.23645 1.65443 3.46217 1.9329 3.46217H9.83206V6.99158C9.83206 7.27008 10.0578 7.49576 10.3362 7.49576H14.2574L14.9917 8.44164V11.042H13.5967C13.3182 11.042 13.0926 11.2677 13.0926 11.5462C13.0926 11.8247 13.3183 12.0504 13.5967 12.0504H15.4959C15.7744 12.0504 16.0001 11.8246 16.0001 11.5462V8.26892C16.0001 8.15698 15.9628 8.04808 15.8942 7.95967Z" fill="#007AFF"/>
<path d="M3.64775 8.48749H1.32841C1.04991 8.48749 0.824219 8.71321 0.824219 8.99168C0.824219 9.27018 1.04994 9.49586 1.32841 9.49586H3.64772C3.92622 9.49586 4.15191 9.27014 4.15191 8.99168C4.15194 8.71321 3.92622 8.48749 3.64775 8.48749Z" fill="#007AFF"/>
<path d="M4.80672 6.50415H0.504188C0.225719 6.50415 0 6.72987 0 7.00837C0 7.28687 0.225719 7.51256 0.504188 7.51256H4.80672C5.08522 7.51256 5.31091 7.28684 5.31091 7.00837C5.31091 6.7299 5.08522 6.50415 4.80672 6.50415Z" fill="#007AFF"/>
<path d="M5.63094 4.521H1.32841C1.04991 4.521 0.824219 4.74671 0.824219 5.02518C0.824219 5.30368 1.04994 5.52937 1.32841 5.52937H5.63094C5.90944 5.52937 6.13513 5.30365 6.13513 5.02518C6.13516 4.74671 5.90944 4.521 5.63094 4.521Z" fill="#007AFF"/>
</g>
<defs>
<clipPath id="clip0">
<rect width="16" height="16" fill="white"/>
</clipPath>
</defs>
</svg>
