<svg width="14" height="14" viewBox="0 0 14 14" fill="none" xmlns="http://www.w3.org/2000/svg">
<path d="M7 0C4.10462 0 1.75 2.35462 1.75 5.25C1.75 8.88912 6.489 13.6701 6.69025 13.8722C6.776 13.9571 6.888 14 7 14C7.112 14 7.224 13.9571 7.30975 13.8722C7.511 13.6701 12.25 8.88912 12.25 5.25C12.25 2.35462 9.89538 0 7 0ZM7 12.9299C5.95525 11.8116 2.625 8.02987 2.625 5.25C2.625 2.83763 4.58763 0.875 7 0.875C9.41237 0.875 11.375 2.83763 11.375 5.25C11.375 8.02725 8.04475 11.8116 7 12.9299Z" fill="#007AFF"/>
<path d="M7 2.625C5.55275 2.625 4.375 3.80275 4.375 5.25C4.375 6.69725 5.55275 7.875 7 7.875C8.44725 7.875 9.625 6.69725 9.625 5.25C9.625 3.80275 8.44725 2.625 7 2.625ZM7 7C6.03487 7 5.25 6.21513 5.25 5.25C5.25 4.28487 6.03487 3.5 7 3.5C7.96513 3.5 8.75 4.28487 8.75 5.25C8.75 6.21513 7.96513 7 7 7Z" fill="#007AFF"/>
</svg>
