<svg width="12" height="14" viewBox="0 0 12 14" fill="none" xmlns="http://www.w3.org/2000/svg">
<path d="M11.9079 3.79856L11.9074 3.78766C11.9013 3.65319 11.8973 3.51091 11.8948 3.35262C11.8834 2.58069 11.2698 1.94218 10.4977 1.89903C8.88809 1.8092 7.64288 1.28433 6.57893 0.247295L6.56985 0.238643C6.22282 -0.0795477 5.69934 -0.0795477 5.3522 0.238643L5.34312 0.247295C4.27918 1.28433 3.03397 1.8092 1.42432 1.89913C0.652399 1.94218 0.0386607 2.58069 0.0272319 3.35273C0.0248821 3.50995 0.0207164 3.65223 0.0146282 3.78766L0.0139873 3.81298C-0.0173084 5.45435 -0.0561877 7.49711 0.627191 9.35125C1.00295 10.3709 1.57204 11.2572 2.31855 11.9858C3.16877 12.8155 4.28238 13.4742 5.62842 13.9435C5.67221 13.9588 5.71771 13.9712 5.76407 13.9805C5.82944 13.9935 5.89523 14 5.96103 14C6.02682 14 6.09273 13.9935 6.15799 13.9805C6.20434 13.9712 6.25017 13.9587 6.29417 13.9433C7.63861 13.4731 8.75105 12.8141 9.60052 11.9845C10.3467 11.2557 10.9158 10.3692 11.2919 9.34933C11.9778 7.48964 11.939 5.44302 11.9079 3.79856ZM10.5211 9.0651C9.80036 11.0193 8.32903 12.3614 6.02309 13.1678C6.01486 13.1706 6.0061 13.1731 5.99702 13.1749C5.9732 13.1796 5.94896 13.1796 5.92482 13.1748C5.91585 13.173 5.90709 13.1706 5.89897 13.1678C3.59056 12.3629 2.11828 11.0216 1.39805 9.06724C0.768182 7.35815 0.803857 5.48297 0.835366 3.82868L0.83558 3.81949C0.841989 3.67733 0.846261 3.52843 0.848611 3.3648C0.853738 3.02204 1.12675 2.73846 1.47015 2.71934C2.38103 2.66849 3.18126 2.49247 3.91655 2.18122C4.65088 1.8704 5.30307 1.43226 5.91019 0.841807C5.94105 0.815745 5.98111 0.815638 6.01187 0.841807C6.61909 1.43226 7.27128 1.8704 8.0055 2.18122C8.74079 2.49247 9.54102 2.66849 10.452 2.71934C10.7954 2.73846 11.0684 3.02204 11.0734 3.3649C11.0759 3.52939 11.0802 3.67829 11.0866 3.81949C11.118 5.47571 11.1528 7.35238 10.5211 9.0651Z" fill="#007AFF"/>
<path d="M5.96068 3.51123C4.03679 3.51123 2.47168 5.07645 2.47168 7.00023C2.47168 8.92412 4.03679 10.4893 5.96068 10.4893C7.88447 10.4893 9.44968 8.92412 9.44968 7.00023C9.44968 5.07645 7.88447 3.51123 5.96068 3.51123ZM5.96068 9.66775C4.48978 9.66775 3.29317 8.47113 3.29317 7.00023C3.29317 5.52933 4.48978 4.33272 5.96068 4.33272C7.43148 4.33272 8.62809 5.52933 8.62809 7.00023C8.62809 8.47113 7.43148 9.66775 5.96068 9.66775Z" fill="#007AFF"/>
<path d="M6.96471 5.9171L5.34417 7.53764L4.90432 7.09779C4.74389 6.93736 4.4838 6.93736 4.32337 7.09779C4.16304 7.25822 4.16304 7.51831 4.32337 7.67863L5.05375 8.40901C5.13396 8.48923 5.23906 8.52928 5.34417 8.52928C5.44927 8.52928 5.55437 8.48923 5.63459 8.40901L7.54566 6.49794C7.70599 6.33751 7.70599 6.07742 7.54566 5.9171C7.38523 5.75656 7.12514 5.75656 6.96471 5.9171Z" fill="#007AFF"/>
</svg>
